<svg width="20" height="20" viewBox="0 0 20 20" fill="none" xmlns="http://www.w3.org/2000/svg">
<path d="M16.6667 18.3334H5.41667C4.64312 18.3334 3.90125 18.0261 3.35427 17.4791C2.80729 16.9321 2.5 16.1902 2.5 15.4167V4.16669C2.5 3.50365 2.76339 2.86776 3.23223 2.39892C3.70107 1.93008 4.33696 1.66669 5 1.66669H16.6667C16.8877 1.66669 17.0996 1.75448 17.2559 1.91076C17.4122 2.06704 17.5 2.27901 17.5 2.50002V17.5C17.5 17.721 17.4122 17.933 17.2559 18.0893C17.0996 18.2456 16.8877 18.3334 16.6667 18.3334ZM15.8333 16.6667V14.1667H5.41667C5.08515 14.1667 4.7672 14.2984 4.53278 14.5328C4.29836 14.7672 4.16667 15.0852 4.16667 15.4167C4.16667 15.7482 4.29836 16.0661 4.53278 16.3006C4.7672 16.535 5.08515 16.6667 5.41667 16.6667H15.8333Z"/>
</svg>
