<svg width="18" height="16" viewBox="0 0 18 16" fill="none" xmlns="http://www.w3.org/2000/svg">
<path d="M8.26562 0.162451C8.73125 -0.0531738 9.26875 -0.0531738 9.73438 0.162451L16.5656 3.3187C16.8312 3.44058 17 3.7062 17 3.99995C17 4.2937 16.8312 4.55933 16.5656 4.6812L9.73438 7.83745C9.26875 8.05308 8.73125 8.05308 8.26562 7.83745L1.43438 4.6812C1.16875 4.5562 1 4.29058 1 3.99995C1 3.70933 1.16875 3.44058 1.43438 3.3187L8.26562 0.162451ZM14.9031 6.54995L16.5656 7.3187C16.8312 7.44058 17 7.7062 17 7.99995C17 8.2937 16.8312 8.55933 16.5656 8.6812L9.73438 11.8375C9.26875 12.0531 8.73125 12.0531 8.26562 11.8375L1.43438 8.6812C1.16875 8.5562 1 8.29058 1 7.99995C1 7.70933 1.16875 7.44058 1.43438 7.3187L3.09687 6.54995L7.84688 8.7437C8.20842 8.91047 8.60184 8.99683 9 8.99683C9.39816 8.99683 9.79158 8.91047 10.1531 8.7437L14.9031 6.54995ZM10.1531 12.7437L14.9031 10.55L16.5656 11.3187C16.8312 11.4406 17 11.7062 17 12C17 12.2937 16.8312 12.5593 16.5656 12.6812L9.73438 15.8375C9.26875 16.0531 8.73125 16.0531 8.26562 15.8375L1.43438 12.6812C1.16875 12.5562 1 12.2906 1 12C1 11.7093 1.16875 11.4406 1.43438 11.3187L3.09687 10.55L7.84688 12.7437C8.20842 12.9105 8.60184 12.9968 9 12.9968C9.39816 12.9968 9.79158 12.9105 10.1531 12.7437Z" />
</svg>
