<svg width="24" height="24" viewBox="0 0 24 24" fill="none" xmlns="http://www.w3.org/2000/svg">
<path d="M21.47 4.35L20.13 3.79V12.82L22.56 6.96C22.97 5.94 22.5 4.77 21.47 4.35ZM1.97001 8.05L6.93001 20C7.07606 20.3636 7.32519 20.6765 7.64677 20.9004C7.96834 21.1243 8.34833 21.2493 8.74001 21.26C9.00001 21.26 9.27001 21.21 9.53001 21.1L16.9 18.05C17.65 17.74 18.11 17 18.13 16.26C18.14 16 18.09 15.71 18 15.45L13 3.5C12.8591 3.1337 12.611 2.81844 12.2881 2.59542C11.9652 2.37241 11.5825 2.25202 11.19 2.25C10.93 2.25 10.67 2.31 10.42 2.4L3.06001 5.45C2.57077 5.65035 2.18112 6.03678 1.97672 6.52433C1.77232 7.01189 1.7699 7.56066 1.97001 8.05ZM18.12 4.25C18.12 3.71957 17.9093 3.21086 17.5342 2.83579C17.1591 2.46071 16.6504 2.25 16.12 2.25H14.67L18.12 10.59" />
</svg>
