<svg width="16" height="16" viewBox="0 0 16 16" fill="none" xmlns="http://www.w3.org/2000/svg">
<path d="M12.648 0.572716L8 5.22097C6.45075 3.67222 4.901 2.12197 3.3515 0.572716C1.559 -1.21978 -1.2195 1.55972 0.571496 3.35272C2.12125 4.90097 3.6715 6.45147 5.2195 8.00072C3.67079 9.55067 2.12145 11.1 0.571496 12.6487C-1.2195 14.4407 1.55925 17.2195 3.3515 15.4287C4.901 13.8787 6.45041 12.3292 7.99975 10.7802L12.6477 15.4287C14.4402 17.2207 17.2195 14.441 15.4277 12.6487C13.8782 11.099 12.3285 9.54955 10.7785 8.00022C12.3282 6.45038 13.8779 4.90072 15.4277 3.35122C17.2197 1.55972 14.4405 -1.21978 12.6477 0.573716" />
</svg>
