<svg width="25" height="25" viewBox="0 0 25 25" fill="none" xmlns="http://www.w3.org/2000/svg">
<path d="M3.60675 5.62385V7.5606H4.175V4.8916H3.67875L2.8385 5.73585L3.1625 6.0761L3.60675 5.62385ZM3.207 11.6059C3.427 11.6059 3.63925 11.7179 3.63925 11.9541C3.63925 12.2821 3.31925 12.5544 2.22675 13.3626V13.8109H4.2355V13.3106H3.147C3.8395 12.8064 4.2155 12.4104 4.2155 11.9541C4.2155 11.4219 3.7675 11.1016 3.195 11.1016C2.82275 11.1016 2.42675 11.2376 2.1665 11.5379L2.4905 11.9141C2.67075 11.7259 2.90275 11.6059 3.207 11.6059ZM3.651 18.6841C3.947 18.6321 4.23525 18.4121 4.23525 18.0759C4.23525 17.6319 3.851 17.3516 3.22675 17.3516C2.7585 17.3516 2.4225 17.5316 2.20625 17.7759L2.49025 18.1319C2.67164 17.9536 2.9162 17.8544 3.1705 17.8559C3.4465 17.8559 3.66675 17.9599 3.66675 18.1719C3.66675 18.3681 3.46675 18.4561 3.1705 18.4561C3.0705 18.4561 2.88625 18.4561 2.83825 18.4521V18.9644C2.87825 18.9604 3.05825 18.9564 3.1705 18.9564C3.54275 18.9564 3.70675 19.0524 3.70675 19.2646C3.70675 19.4646 3.5265 19.6046 3.2025 19.6046C2.94225 19.6046 2.65025 19.4926 2.47025 19.3006L2.17025 19.6809C2.36625 19.9209 2.7345 20.1089 3.2225 20.1089C3.86275 20.1089 4.275 19.7849 4.275 19.3246C4.2755 18.9241 3.92325 18.7121 3.651 18.6841ZM21.9815 4.97235H6.3655C6.13961 4.97235 5.92296 5.06209 5.76323 5.22182C5.60349 5.38156 5.51375 5.5982 5.51375 5.8241V6.60985C5.51375 6.83575 5.60349 7.0524 5.76323 7.21213C5.92296 7.37186 6.13961 7.4616 6.3655 7.4616H21.9813C22.2072 7.4616 22.4238 7.37186 22.5835 7.21213C22.7433 7.0524 22.833 6.83575 22.833 6.60985V5.8241C22.833 5.71226 22.811 5.60151 22.7683 5.49817C22.7255 5.39483 22.6628 5.30093 22.5837 5.22184C22.5046 5.14274 22.4107 5.08 22.3074 5.03719C22.2041 4.99438 22.0933 4.97235 21.9815 4.97235ZM21.9815 11.1954H6.3655C6.13961 11.1954 5.92296 11.2851 5.76323 11.4448C5.60349 11.6046 5.51375 11.8212 5.51375 12.0471V12.8329C5.51375 13.0588 5.60349 13.2754 5.76323 13.4351C5.92296 13.5949 6.13961 13.6846 6.3655 13.6846H21.9813C22.2072 13.6846 22.4238 13.5949 22.5835 13.4351C22.7433 13.2754 22.833 13.0588 22.833 12.8329V12.0471C22.833 11.9353 22.811 11.8245 22.7683 11.7212C22.7255 11.6178 22.6628 11.5239 22.5837 11.4448C22.5046 11.3657 22.4107 11.303 22.3074 11.2602C22.2041 11.2174 22.0933 11.1954 21.9815 11.1954ZM21.9815 17.4184H6.3655C6.13961 17.4184 5.92296 17.5081 5.76323 17.6678C5.60349 17.8276 5.51375 18.0442 5.51375 18.2701V19.0559C5.51375 19.2817 5.60349 19.4984 5.76323 19.6581C5.92296 19.8179 6.13961 19.9076 6.3655 19.9076H21.9813C22.2072 19.9076 22.4238 19.8179 22.5835 19.6581C22.7433 19.4984 22.833 19.2817 22.833 19.0559V18.2701C22.833 18.1583 22.811 18.0475 22.7683 17.9442C22.7255 17.8408 22.6628 17.7469 22.5837 17.6678C22.5046 17.5887 22.4107 17.526 22.3074 17.4832C22.2041 17.4404 22.0933 17.4184 21.9815 17.4184Z" fill="black"/>
</svg>
