<svg width="22" height="22" viewBox="0 0 22 22" fill="none" xmlns="http://www.w3.org/2000/svg">
<path d="M9.53055 2.75C7.73211 2.75 6.00733 3.46443 4.73563 4.73612C3.46394 6.00781 2.74951 7.7326 2.74951 9.53104C2.74951 11.3295 3.46394 13.0543 4.73563 14.326C6.00733 15.5977 7.73211 16.3121 9.53055 16.3121C11.329 16.3121 13.0538 15.5977 14.3255 14.326C15.5972 13.0543 16.3116 11.3295 16.3116 9.53104C16.3116 7.7326 15.5972 6.00781 14.3255 4.73612C13.0538 3.46443 11.329 2.75 9.53055 2.75ZM3.65472 9.53058C3.645 8.75272 3.78982 7.98067 4.08078 7.25921C4.37173 6.53775 4.80303 5.88123 5.34965 5.32773C5.89628 4.77423 6.54736 4.33477 7.26514 4.03483C7.98291 3.73489 8.75309 3.58044 9.53101 3.58044C10.3089 3.58044 11.0791 3.73489 11.7969 4.03483C12.5147 4.33477 13.1657 4.77423 13.7124 5.32773C14.259 5.88123 14.6903 6.53775 14.9812 7.25921C15.2722 7.98067 15.417 8.75272 15.4073 9.53058C15.4073 11.0892 14.7881 12.584 13.686 13.6861C12.5839 14.7882 11.0892 15.4073 9.53055 15.4073C7.97194 15.4073 6.47717 14.7882 5.37506 13.6861C4.27296 12.584 3.65472 11.0892 3.65472 9.53058Z" />
<path d="M15.4348 14.476C15.3726 14.4097 15.2977 14.3566 15.2146 14.3199C15.1315 14.2831 15.0418 14.2635 14.951 14.262C14.8601 14.2606 14.7699 14.2775 14.6856 14.3116C14.6014 14.3457 14.5249 14.3964 14.4606 14.4606C14.3964 14.5249 14.3457 14.6014 14.3116 14.6856C14.2775 14.7699 14.2606 14.8601 14.262 14.951C14.2635 15.0418 14.2831 15.1315 14.3199 15.2146C14.3566 15.2977 14.4097 15.3726 14.476 15.4348L18.0922 19.0511C18.1544 19.1173 18.2293 19.1704 18.3124 19.2071C18.3955 19.2439 18.4852 19.2635 18.5761 19.265C18.6669 19.2664 18.7571 19.2496 18.8414 19.2154C18.9256 19.1813 19.0021 19.1306 19.0664 19.0664C19.1306 19.0021 19.1813 18.9256 19.2154 18.8414C19.2496 18.7571 19.2664 18.6669 19.265 18.5761C19.2635 18.4852 19.2439 18.3955 19.2071 18.3124C19.1704 18.2293 19.1173 18.1544 19.0511 18.0922L15.4348 14.476Z" />
</svg>
