<svg width="22" height="22" viewBox="0 0 22 22" fill="none" xmlns="http://www.w3.org/2000/svg">
<path fill-rule="evenodd" clip-rule="evenodd" d="M10.9796 2.35725C10.3227 2.34538 9.66986 2.46318 9.05852 2.70389C8.44719 2.94461 7.88932 3.30352 7.41685 3.76008C6.94438 4.21664 6.56658 4.76188 6.30508 5.36462C6.04357 5.96735 5.90349 6.61574 5.89286 7.27267V14.143C5.89286 14.5597 5.7273 14.9594 5.4326 15.2541C5.1379 15.5488 4.7382 15.7144 4.32143 15.7144H2.35714C1.73199 15.7144 1.13244 15.466 0.690391 15.024C0.248341 14.5819 0 13.9824 0 13.3572L0 10.2144C0 9.58923 0.248341 8.98969 0.690391 8.54764C1.13244 8.10559 1.73199 7.85724 2.35714 7.85724H3.53571V7.24439C3.55005 6.27858 3.75451 5.32505 4.1374 4.43827C4.5203 3.55148 5.07413 2.74881 5.76728 2.0761C6.46042 1.40338 7.2793 0.8738 8.17714 0.517597C9.07498 0.161394 10.0342 -0.0144514 11 0.0001025C11.9658 -0.0144514 12.925 0.161394 13.8229 0.517597C14.7207 0.8738 15.5396 1.40338 16.2327 2.0761C16.9259 2.74881 17.4797 3.55148 17.8626 4.43827C18.2455 5.32505 18.4499 6.27858 18.4643 7.24439V7.85724H19.6429C20.268 7.85724 20.8676 8.10559 21.3096 8.54764C21.7517 8.98969 22 9.58923 22 10.2144V13.3572C22 13.9824 21.7517 14.5819 21.3096 15.024C20.8676 15.466 20.268 15.7144 19.6429 15.7144H18.4643V16.5001C18.4645 17.562 18.0737 18.5868 17.3665 19.379C16.6593 20.1711 15.6851 20.6751 14.63 20.7948C14.4251 21.1607 14.1263 21.4652 13.7644 21.6771C13.4026 21.889 12.9908 22.0005 12.5714 22.0001H10.2143C9.58913 22.0001 8.98958 21.7518 8.54753 21.3097C8.10548 20.8677 7.85714 20.2681 7.85714 19.643C7.85714 19.0178 8.10548 18.4183 8.54753 17.9762C8.98958 17.5342 9.58913 17.2858 10.2143 17.2858H12.5714C13.4231 17.2858 14.1696 17.7368 14.5829 18.4141C15.016 18.3146 15.4026 18.0711 15.6794 17.7234C15.9563 17.3758 16.1071 16.9445 16.1071 16.5001V7.2711C16.0964 6.61079 15.9548 5.95916 15.6907 5.35388C15.4265 4.74861 15.045 4.2017 14.5682 3.74477C14.0914 3.28783 13.5287 2.92994 12.9128 2.69178C12.2968 2.45362 11.6397 2.33992 10.9796 2.35725Z" />
</svg>
