<?xml version="1.0" encoding="UTF-8" standalone="no"?>
<!DOCTYPE svg PUBLIC "-//W3C//DTD SVG 1.1//EN"
 "http://www.w3.org/Graphics/SVG/1.1/DTD/svg11.dtd">
<!-- Generated by graphviz version 12.2.1 (20241206.2353)
 -->
<!-- Title: dependency&#45;cruiser output Pages: 1 -->
<svg width="1758pt" height="1500pt"
 viewBox="0.00 0.00 1758.00 1500.07" xmlns="http://www.w3.org/2000/svg" xmlns:xlink="http://www.w3.org/1999/xlink">
<g id="graph0" class="graph" transform="scale(1 1) rotate(0) translate(4 1496.07)">
<title>dependency&#45;cruiser output</title>
<polygon fill="white" stroke="none" points="-4,4 -4,-1496.07 1754,-1496.07 1754,4 -4,4"/>
<g id="clust1" class="cluster">
<title>cluster_..</title>
<path fill="#ffffff" stroke="black" stroke-width="2" d="M872,-8.49C872,-8.49 1730,-8.49 1730,-8.49 1736,-8.49 1742,-14.49 1742,-20.49 1742,-20.49 1742,-997.49 1742,-997.49 1742,-1003.49 1736,-1009.49 1730,-1009.49 1730,-1009.49 872,-1009.49 872,-1009.49 866,-1009.49 860,-1003.49 860,-997.49 860,-997.49 860,-20.49 860,-20.49 860,-14.49 866,-8.49 872,-8.49"/>
<text text-anchor="middle" x="1301" y="-996.94" font-family="Helvetica,sans-Serif" font-weight="bold" font-size="9.00">..</text>
</g>
<g id="clust2" class="cluster">
<title>cluster_../..</title>
<path fill="#ffffff" stroke="black" stroke-width="2" d="M880,-16.49C880,-16.49 1722,-16.49 1722,-16.49 1728,-16.49 1734,-22.49 1734,-28.49 1734,-28.49 1734,-970.49 1734,-970.49 1734,-976.49 1728,-982.49 1722,-982.49 1722,-982.49 880,-982.49 880,-982.49 874,-982.49 868,-976.49 868,-970.49 868,-970.49 868,-28.49 868,-28.49 868,-22.49 874,-16.49 880,-16.49"/>
<text text-anchor="middle" x="1301" y="-969.94" font-family="Helvetica,sans-Serif" font-weight="bold" font-size="9.00">..</text>
</g>
<g id="clust3" class="cluster">
<title>cluster_../../packages</title>
<path fill="#ffffff" stroke="black" stroke-width="2" d="M888,-24.49C888,-24.49 1714,-24.49 1714,-24.49 1720,-24.49 1726,-30.49 1726,-36.49 1726,-36.49 1726,-943.49 1726,-943.49 1726,-949.49 1720,-955.49 1714,-955.49 1714,-955.49 888,-955.49 888,-955.49 882,-955.49 876,-949.49 876,-943.49 876,-943.49 876,-36.49 876,-36.49 876,-30.49 882,-24.49 888,-24.49"/>
<text text-anchor="middle" x="1301" y="-942.94" font-family="Helvetica,sans-Serif" font-weight="bold" font-size="9.00">packages</text>
</g>
<g id="clust4" class="cluster">
<title>cluster_../../packages/model</title>
<path fill="#ffffff" stroke="black" stroke-width="2" d="M1079.75,-477.49C1079.75,-477.49 1706,-477.49 1706,-477.49 1712,-477.49 1718,-483.49 1718,-489.49 1718,-489.49 1718,-916.49 1718,-916.49 1718,-922.49 1712,-928.49 1706,-928.49 1706,-928.49 1079.75,-928.49 1079.75,-928.49 1073.75,-928.49 1067.75,-922.49 1067.75,-916.49 1067.75,-916.49 1067.75,-489.49 1067.75,-489.49 1067.75,-483.49 1073.75,-477.49 1079.75,-477.49"/>
<text text-anchor="middle" x="1392.88" y="-915.94" font-family="Helvetica,sans-Serif" font-weight="bold" font-size="9.00">model</text>
</g>
<g id="clust5" class="cluster">
<title>cluster_../../packages/model/src</title>
<path fill="#ffffff" stroke="black" stroke-width="2" d="M1087.75,-485.49C1087.75,-485.49 1698,-485.49 1698,-485.49 1704,-485.49 1710,-491.49 1710,-497.49 1710,-497.49 1710,-889.49 1710,-889.49 1710,-895.49 1704,-901.49 1698,-901.49 1698,-901.49 1087.75,-901.49 1087.75,-901.49 1081.75,-901.49 1075.75,-895.49 1075.75,-889.49 1075.75,-889.49 1075.75,-497.49 1075.75,-497.49 1075.75,-491.49 1081.75,-485.49 1087.75,-485.49"/>
<text text-anchor="middle" x="1392.88" y="-888.94" font-family="Helvetica,sans-Serif" font-weight="bold" font-size="9.00">src</text>
</g>
<g id="clust6" class="cluster">
<title>cluster_../../packages/model/src/config</title>
<path fill="#ffffff" stroke="black" stroke-width="2" d="M1395.75,-741.49C1395.75,-741.49 1690,-741.49 1690,-741.49 1696,-741.49 1702,-747.49 1702,-753.49 1702,-753.49 1702,-862.49 1702,-862.49 1702,-868.49 1696,-874.49 1690,-874.49 1690,-874.49 1395.75,-874.49 1395.75,-874.49 1389.75,-874.49 1383.75,-868.49 1383.75,-862.49 1383.75,-862.49 1383.75,-753.49 1383.75,-753.49 1383.75,-747.49 1389.75,-741.49 1395.75,-741.49"/>
<text text-anchor="middle" x="1542.88" y="-861.94" font-family="Helvetica,sans-Serif" font-weight="bold" font-size="9.00">config</text>
</g>
<g id="clust7" class="cluster">
<title>cluster_../../packages/model/src/config/router</title>
<path fill="#ffffff" stroke="black" stroke-width="2" d="M1403.75,-749.49C1403.75,-749.49 1682,-749.49 1682,-749.49 1688,-749.49 1694,-755.49 1694,-761.49 1694,-761.49 1694,-835.49 1694,-835.49 1694,-841.49 1688,-847.49 1682,-847.49 1682,-847.49 1403.75,-847.49 1403.75,-847.49 1397.75,-847.49 1391.75,-841.49 1391.75,-835.49 1391.75,-835.49 1391.75,-761.49 1391.75,-761.49 1391.75,-755.49 1397.75,-749.49 1403.75,-749.49"/>
<text text-anchor="middle" x="1542.88" y="-834.94" font-family="Helvetica,sans-Serif" font-weight="bold" font-size="9.00">router</text>
</g>
<g id="clust8" class="cluster">
<title>cluster_../../packages/model/src/config/router/const</title>
<path fill="#ffffff" stroke="black" stroke-width="2" d="M1614.25,-767.49C1614.25,-767.49 1674,-767.49 1674,-767.49 1680,-767.49 1686,-773.49 1686,-779.49 1686,-779.49 1686,-808.49 1686,-808.49 1686,-814.49 1680,-820.49 1674,-820.49 1674,-820.49 1614.25,-820.49 1614.25,-820.49 1608.25,-820.49 1602.25,-814.49 1602.25,-808.49 1602.25,-808.49 1602.25,-779.49 1602.25,-779.49 1602.25,-773.49 1608.25,-767.49 1614.25,-767.49"/>
<text text-anchor="middle" x="1644.12" y="-807.94" font-family="Helvetica,sans-Serif" font-weight="bold" font-size="9.00">const</text>
</g>
<g id="clust9" class="cluster">
<title>cluster_../../packages/model/src/config/router/types</title>
<path fill="#ffffff" stroke="black" stroke-width="2" d="M1516,-767.49C1516,-767.49 1562,-767.49 1562,-767.49 1568,-767.49 1574,-773.49 1574,-779.49 1574,-779.49 1574,-808.49 1574,-808.49 1574,-814.49 1568,-820.49 1562,-820.49 1562,-820.49 1516,-820.49 1516,-820.49 1510,-820.49 1504,-814.49 1504,-808.49 1504,-808.49 1504,-779.49 1504,-779.49 1504,-773.49 1510,-767.49 1516,-767.49"/>
<text text-anchor="middle" x="1539" y="-807.94" font-family="Helvetica,sans-Serif" font-weight="bold" font-size="9.00">types</text>
</g>
<g id="clust10" class="cluster">
<title>cluster_../../packages/model/src/lib</title>
<path fill="#ffffff" stroke="black" stroke-width="2" d="M1095.75,-493.49C1095.75,-493.49 1578,-493.49 1578,-493.49 1584,-493.49 1590,-499.49 1590,-505.49 1590,-505.49 1590,-721.49 1590,-721.49 1590,-727.49 1584,-733.49 1578,-733.49 1578,-733.49 1095.75,-733.49 1095.75,-733.49 1089.75,-733.49 1083.75,-727.49 1083.75,-721.49 1083.75,-721.49 1083.75,-505.49 1083.75,-505.49 1083.75,-499.49 1089.75,-493.49 1095.75,-493.49"/>
<text text-anchor="middle" x="1336.88" y="-720.94" font-family="Helvetica,sans-Serif" font-weight="bold" font-size="9.00">lib</text>
</g>
<g id="clust11" class="cluster">
<title>cluster_../../packages/model/src/lib/classNames</title>
<path fill="#ffffff" stroke="black" stroke-width="2" d="M1112,-618.49C1112,-618.49 1341,-618.49 1341,-618.49 1347,-618.49 1353,-624.49 1353,-630.49 1353,-630.49 1353,-694.49 1353,-694.49 1353,-700.49 1347,-706.49 1341,-706.49 1341,-706.49 1112,-706.49 1112,-706.49 1106,-706.49 1100,-700.49 1100,-694.49 1100,-694.49 1100,-630.49 1100,-630.49 1100,-624.49 1106,-618.49 1112,-618.49"/>
<text text-anchor="middle" x="1226.5" y="-693.94" font-family="Helvetica,sans-Serif" font-weight="bold" font-size="9.00">classNames</text>
</g>
<g id="clust12" class="cluster">
<title>cluster_../../packages/model/src/lib/classNames/types</title>
<path fill="#ffffff" stroke="black" stroke-width="2" d="M1245.5,-626.49C1245.5,-626.49 1333,-626.49 1333,-626.49 1339,-626.49 1345,-632.49 1345,-638.49 1345,-638.49 1345,-667.49 1345,-667.49 1345,-673.49 1339,-679.49 1333,-679.49 1333,-679.49 1245.5,-679.49 1245.5,-679.49 1239.5,-679.49 1233.5,-673.49 1233.5,-667.49 1233.5,-667.49 1233.5,-638.49 1233.5,-638.49 1233.5,-632.49 1239.5,-626.49 1245.5,-626.49"/>
<text text-anchor="middle" x="1289.25" y="-666.94" font-family="Helvetica,sans-Serif" font-weight="bold" font-size="9.00">types</text>
</g>
<g id="clust13" class="cluster">
<title>cluster_../../packages/model/src/lib/theme</title>
<path fill="#ffffff" stroke="black" stroke-width="2" d="M1103.75,-501.49C1103.75,-501.49 1570,-501.49 1570,-501.49 1576,-501.49 1582,-507.49 1582,-513.49 1582,-513.49 1582,-598.49 1582,-598.49 1582,-604.49 1576,-610.49 1570,-610.49 1570,-610.49 1103.75,-610.49 1103.75,-610.49 1097.75,-610.49 1091.75,-604.49 1091.75,-598.49 1091.75,-598.49 1091.75,-513.49 1091.75,-513.49 1091.75,-507.49 1097.75,-501.49 1103.75,-501.49"/>
<text text-anchor="middle" x="1336.88" y="-597.94" font-family="Helvetica,sans-Serif" font-weight="bold" font-size="9.00">theme</text>
</g>
<g id="clust14" class="cluster">
<title>cluster_../../packages/model/src/lib/theme/const</title>
<path fill="#ffffff" stroke="black" stroke-width="2" d="M1516,-520.49C1516,-520.49 1562,-520.49 1562,-520.49 1568,-520.49 1574,-526.49 1574,-532.49 1574,-532.49 1574,-561.49 1574,-561.49 1574,-567.49 1568,-573.49 1562,-573.49 1562,-573.49 1516,-573.49 1516,-573.49 1510,-573.49 1504,-567.49 1504,-561.49 1504,-561.49 1504,-532.49 1504,-532.49 1504,-526.49 1510,-520.49 1516,-520.49"/>
<text text-anchor="middle" x="1539" y="-560.94" font-family="Helvetica,sans-Serif" font-weight="bold" font-size="9.00">const</text>
</g>
<g id="clust15" class="cluster">
<title>cluster_../../packages/model/src/lib/theme/types</title>
<path fill="#ffffff" stroke="black" stroke-width="2" d="M1424.88,-520.49C1424.88,-520.49 1470.88,-520.49 1470.88,-520.49 1476.88,-520.49 1482.88,-526.49 1482.88,-532.49 1482.88,-532.49 1482.88,-561.49 1482.88,-561.49 1482.88,-567.49 1476.88,-573.49 1470.88,-573.49 1470.88,-573.49 1424.88,-573.49 1424.88,-573.49 1418.88,-573.49 1412.88,-567.49 1412.88,-561.49 1412.88,-561.49 1412.88,-532.49 1412.88,-532.49 1412.88,-526.49 1418.88,-520.49 1424.88,-520.49"/>
<text text-anchor="middle" x="1447.88" y="-560.94" font-family="Helvetica,sans-Serif" font-weight="bold" font-size="9.00">types</text>
</g>
<g id="clust16" class="cluster">
<title>cluster_../../packages/model/src/types</title>
<path fill="#ffffff" stroke="black" stroke-width="2" d="M1610,-557.49C1610,-557.49 1678.25,-557.49 1678.25,-557.49 1684.25,-557.49 1690.25,-563.49 1690.25,-569.49 1690.25,-569.49 1690.25,-633.49 1690.25,-633.49 1690.25,-639.49 1684.25,-645.49 1678.25,-645.49 1678.25,-645.49 1610,-645.49 1610,-645.49 1604,-645.49 1598,-639.49 1598,-633.49 1598,-633.49 1598,-569.49 1598,-569.49 1598,-563.49 1604,-557.49 1610,-557.49"/>
<text text-anchor="middle" x="1644.12" y="-632.94" font-family="Helvetica,sans-Serif" font-weight="bold" font-size="9.00">types</text>
</g>
<g id="clust17" class="cluster">
<title>cluster_../../packages/model/src/types/common</title>
<path fill="#ffffff" stroke="black" stroke-width="2" d="M1618,-565.49C1618,-565.49 1670.25,-565.49 1670.25,-565.49 1676.25,-565.49 1682.25,-571.49 1682.25,-577.49 1682.25,-577.49 1682.25,-606.49 1682.25,-606.49 1682.25,-612.49 1676.25,-618.49 1670.25,-618.49 1670.25,-618.49 1618,-618.49 1618,-618.49 1612,-618.49 1606,-612.49 1606,-606.49 1606,-606.49 1606,-577.49 1606,-577.49 1606,-571.49 1612,-565.49 1618,-565.49"/>
<text text-anchor="middle" x="1644.12" y="-605.94" font-family="Helvetica,sans-Serif" font-weight="bold" font-size="9.00">common</text>
</g>
<g id="clust18" class="cluster">
<title>cluster_../../packages/ui</title>
<path fill="#ffffff" stroke="black" stroke-width="2" d="M896,-32.49C896,-32.49 1363.75,-32.49 1363.75,-32.49 1369.75,-32.49 1375.75,-38.49 1375.75,-44.49 1375.75,-44.49 1375.75,-457.49 1375.75,-457.49 1375.75,-463.49 1369.75,-469.49 1363.75,-469.49 1363.75,-469.49 896,-469.49 896,-469.49 890,-469.49 884,-463.49 884,-457.49 884,-457.49 884,-44.49 884,-44.49 884,-38.49 890,-32.49 896,-32.49"/>
<text text-anchor="middle" x="1129.88" y="-456.94" font-family="Helvetica,sans-Serif" font-weight="bold" font-size="9.00">ui</text>
</g>
<g id="clust19" class="cluster">
<title>cluster_../../packages/ui/src</title>
<path fill="#ffffff" stroke="black" stroke-width="2" d="M904,-40.49C904,-40.49 1355.75,-40.49 1355.75,-40.49 1361.75,-40.49 1367.75,-46.49 1367.75,-52.49 1367.75,-52.49 1367.75,-430.49 1367.75,-430.49 1367.75,-436.49 1361.75,-442.49 1355.75,-442.49 1355.75,-442.49 904,-442.49 904,-442.49 898,-442.49 892,-436.49 892,-430.49 892,-430.49 892,-52.49 892,-52.49 892,-46.49 898,-40.49 904,-40.49"/>
<text text-anchor="middle" x="1129.88" y="-429.94" font-family="Helvetica,sans-Serif" font-weight="bold" font-size="9.00">src</text>
</g>
<g id="clust20" class="cluster">
<title>cluster_../../packages/ui/src/layout</title>
<path fill="#ffffff" stroke="black" stroke-width="2" d="M912,-109.49C912,-109.49 1213.5,-109.49 1213.5,-109.49 1219.5,-109.49 1225.5,-115.49 1225.5,-121.49 1225.5,-121.49 1225.5,-246.49 1225.5,-246.49 1225.5,-252.49 1219.5,-258.49 1213.5,-258.49 1213.5,-258.49 912,-258.49 912,-258.49 906,-258.49 900,-252.49 900,-246.49 900,-246.49 900,-121.49 900,-121.49 900,-115.49 906,-109.49 912,-109.49"/>
<text text-anchor="middle" x="1062.75" y="-245.94" font-family="Helvetica,sans-Serif" font-weight="bold" font-size="9.00">layout</text>
</g>
<g id="clust21" class="cluster">
<title>cluster_../../packages/ui/src/layout/HeaderLayout</title>
<path fill="#ffffff" stroke="black" stroke-width="2" d="M920,-178.49C920,-178.49 1205.5,-178.49 1205.5,-178.49 1211.5,-178.49 1217.5,-184.49 1217.5,-190.49 1217.5,-190.49 1217.5,-219.49 1217.5,-219.49 1217.5,-225.49 1211.5,-231.49 1205.5,-231.49 1205.5,-231.49 920,-231.49 920,-231.49 914,-231.49 908,-225.49 908,-219.49 908,-219.49 908,-190.49 908,-190.49 908,-184.49 914,-178.49 920,-178.49"/>
<text text-anchor="middle" x="1062.75" y="-218.94" font-family="Helvetica,sans-Serif" font-weight="bold" font-size="9.00">HeaderLayout</text>
</g>
<g id="clust22" class="cluster">
<title>cluster_../../packages/ui/src/layout/MainLayout</title>
<path fill="#ffffff" stroke="black" stroke-width="2" d="M925.25,-117.49C925.25,-117.49 1200.25,-117.49 1200.25,-117.49 1206.25,-117.49 1212.25,-123.49 1212.25,-129.49 1212.25,-129.49 1212.25,-158.49 1212.25,-158.49 1212.25,-164.49 1206.25,-170.49 1200.25,-170.49 1200.25,-170.49 925.25,-170.49 925.25,-170.49 919.25,-170.49 913.25,-164.49 913.25,-158.49 913.25,-158.49 913.25,-129.49 913.25,-129.49 913.25,-123.49 919.25,-117.49 925.25,-117.49"/>
<text text-anchor="middle" x="1062.75" y="-157.94" font-family="Helvetica,sans-Serif" font-weight="bold" font-size="9.00">MainLayout</text>
</g>
<g id="clust23" class="cluster">
<title>cluster_../../packages/ui/src/shared</title>
<path fill="#ffffff" stroke="black" stroke-width="2" d="M929,-266.49C929,-266.49 1347.75,-266.49 1347.75,-266.49 1353.75,-266.49 1359.75,-272.49 1359.75,-278.49 1359.75,-278.49 1359.75,-403.49 1359.75,-403.49 1359.75,-409.49 1353.75,-415.49 1347.75,-415.49 1347.75,-415.49 929,-415.49 929,-415.49 923,-415.49 917,-409.49 917,-403.49 917,-403.49 917,-278.49 917,-278.49 917,-272.49 923,-266.49 929,-266.49"/>
<text text-anchor="middle" x="1138.38" y="-402.94" font-family="Helvetica,sans-Serif" font-weight="bold" font-size="9.00">shared</text>
</g>
<g id="clust24" class="cluster">
<title>cluster_../../packages/ui/src/shared/Container</title>
<path fill="#ffffff" stroke="black" stroke-width="2" d="M1115,-274.49C1115,-274.49 1339.75,-274.49 1339.75,-274.49 1345.75,-274.49 1351.75,-280.49 1351.75,-286.49 1351.75,-286.49 1351.75,-315.49 1351.75,-315.49 1351.75,-321.49 1345.75,-327.49 1339.75,-327.49 1339.75,-327.49 1115,-327.49 1115,-327.49 1109,-327.49 1103,-321.49 1103,-315.49 1103,-315.49 1103,-286.49 1103,-286.49 1103,-280.49 1109,-274.49 1115,-274.49"/>
<text text-anchor="middle" x="1227.38" y="-314.94" font-family="Helvetica,sans-Serif" font-weight="bold" font-size="9.00">Container</text>
</g>
<g id="clust25" class="cluster">
<title>cluster_../../packages/ui/src/shared/Page</title>
<path fill="#ffffff" stroke="black" stroke-width="2" d="M937,-335.49C937,-335.49 1187.12,-335.49 1187.12,-335.49 1193.12,-335.49 1199.12,-341.49 1199.12,-347.49 1199.12,-347.49 1199.12,-376.49 1199.12,-376.49 1199.12,-382.49 1193.12,-388.49 1187.12,-388.49 1187.12,-388.49 937,-388.49 937,-388.49 931,-388.49 925,-382.49 925,-376.49 925,-376.49 925,-347.49 925,-347.49 925,-341.49 931,-335.49 937,-335.49"/>
<text text-anchor="middle" x="1062.06" y="-375.94" font-family="Helvetica,sans-Serif" font-weight="bold" font-size="9.00">Page</text>
</g>
<g id="clust26" class="cluster">
<title>cluster_../../packages/ui/src/styles</title>
<path fill="#ffffff" stroke="black" stroke-width="2" d="M934.62,-48.49C934.62,-48.49 985.38,-48.49 985.38,-48.49 991.38,-48.49 997.38,-54.49 997.38,-60.49 997.38,-60.49 997.38,-89.49 997.38,-89.49 997.38,-95.49 991.38,-101.49 985.38,-101.49 985.38,-101.49 934.62,-101.49 934.62,-101.49 928.62,-101.49 922.62,-95.49 922.62,-89.49 922.62,-89.49 922.62,-60.49 922.62,-60.49 922.62,-54.49 928.62,-48.49 934.62,-48.49"/>
<text text-anchor="middle" x="960" y="-88.94" font-family="Helvetica,sans-Serif" font-weight="bold" font-size="9.00">styles</text>
</g>
<g id="clust27" class="cluster">
<title>cluster_src</title>
<path fill="#ffffff" stroke="black" stroke-width="2" d="M20,-1017.49C20,-1017.49 1047.75,-1017.49 1047.75,-1017.49 1053.75,-1017.49 1059.75,-1023.49 1059.75,-1029.49 1059.75,-1029.49 1059.75,-1412.49 1059.75,-1412.49 1059.75,-1418.49 1053.75,-1424.49 1047.75,-1424.49 1047.75,-1424.49 20,-1424.49 20,-1424.49 14,-1424.49 8,-1418.49 8,-1412.49 8,-1412.49 8,-1029.49 8,-1029.49 8,-1023.49 14,-1017.49 20,-1017.49"/>
<text text-anchor="middle" x="533.88" y="-1411.94" font-family="Helvetica,sans-Serif" font-weight="bold" font-size="9.00">src</text>
</g>
<g id="clust28" class="cluster">
<title>cluster_src/app</title>
<path fill="#ffffff" stroke="black" stroke-width="2" d="M170.75,-1037.49C170.75,-1037.49 588.88,-1037.49 588.88,-1037.49 594.88,-1037.49 600.88,-1043.49 600.88,-1049.49 600.88,-1049.49 600.88,-1193.49 600.88,-1193.49 600.88,-1199.49 594.88,-1205.49 588.88,-1205.49 588.88,-1205.49 170.75,-1205.49 170.75,-1205.49 164.75,-1205.49 158.75,-1199.49 158.75,-1193.49 158.75,-1193.49 158.75,-1049.49 158.75,-1049.49 158.75,-1043.49 164.75,-1037.49 170.75,-1037.49"/>
<text text-anchor="middle" x="379.81" y="-1192.94" font-family="Helvetica,sans-Serif" font-weight="bold" font-size="9.00">app</text>
</g>
<g id="clust29" class="cluster">
<title>cluster_src/app/providers</title>
<path fill="#ffffff" stroke="black" stroke-width="2" d="M298.62,-1045.49C298.62,-1045.49 580.88,-1045.49 580.88,-1045.49 586.88,-1045.49 592.88,-1051.49 592.88,-1057.49 592.88,-1057.49 592.88,-1166.49 592.88,-1166.49 592.88,-1172.49 586.88,-1178.49 580.88,-1178.49 580.88,-1178.49 298.62,-1178.49 298.62,-1178.49 292.62,-1178.49 286.62,-1172.49 286.62,-1166.49 286.62,-1166.49 286.62,-1057.49 286.62,-1057.49 286.62,-1051.49 292.62,-1045.49 298.62,-1045.49"/>
<text text-anchor="middle" x="439.75" y="-1165.94" font-family="Helvetica,sans-Serif" font-weight="bold" font-size="9.00">providers</text>
</g>
<g id="clust30" class="cluster">
<title>cluster_src/app/providers/router</title>
<path fill="#ffffff" stroke="black" stroke-width="2" d="M306.62,-1053.49C306.62,-1053.49 572.88,-1053.49 572.88,-1053.49 578.88,-1053.49 584.88,-1059.49 584.88,-1065.49 584.88,-1065.49 584.88,-1139.49 584.88,-1139.49 584.88,-1145.49 578.88,-1151.49 572.88,-1151.49 572.88,-1151.49 306.62,-1151.49 306.62,-1151.49 300.62,-1151.49 294.62,-1145.49 294.62,-1139.49 294.62,-1139.49 294.62,-1065.49 294.62,-1065.49 294.62,-1059.49 300.62,-1053.49 306.62,-1053.49"/>
<text text-anchor="middle" x="439.75" y="-1138.94" font-family="Helvetica,sans-Serif" font-weight="bold" font-size="9.00">router</text>
</g>
<g id="clust31" class="cluster">
<title>cluster_src/app/providers/router/model</title>
<path fill="#ffffff" stroke="black" stroke-width="2" d="M492.38,-1071.49C492.38,-1071.49 564.88,-1071.49 564.88,-1071.49 570.88,-1071.49 576.88,-1077.49 576.88,-1083.49 576.88,-1083.49 576.88,-1112.49 576.88,-1112.49 576.88,-1118.49 570.88,-1124.49 564.88,-1124.49 564.88,-1124.49 492.38,-1124.49 492.38,-1124.49 486.38,-1124.49 480.38,-1118.49 480.38,-1112.49 480.38,-1112.49 480.38,-1083.49 480.38,-1083.49 480.38,-1077.49 486.38,-1071.49 492.38,-1071.49"/>
<text text-anchor="middle" x="528.62" y="-1111.94" font-family="Helvetica,sans-Serif" font-weight="bold" font-size="9.00">model</text>
</g>
<g id="clust32" class="cluster">
<title>cluster_src/app/providers/router/ui</title>
<path fill="#ffffff" stroke="black" stroke-width="2" d="M394,-1071.49C394,-1071.49 459,-1071.49 459,-1071.49 465,-1071.49 471,-1077.49 471,-1083.49 471,-1083.49 471,-1112.49 471,-1112.49 471,-1118.49 465,-1124.49 459,-1124.49 459,-1124.49 394,-1124.49 394,-1124.49 388,-1124.49 382,-1118.49 382,-1112.49 382,-1112.49 382,-1083.49 382,-1083.49 382,-1077.49 388,-1071.49 394,-1071.49"/>
<text text-anchor="middle" x="426.5" y="-1111.94" font-family="Helvetica,sans-Serif" font-weight="bold" font-size="9.00">ui</text>
</g>
<g id="clust33" class="cluster">
<title>cluster_src/app/types</title>
<path fill="#ffffff" stroke="black" stroke-width="2" d="M178.75,-1045.49C178.75,-1045.49 233.25,-1045.49 233.25,-1045.49 239.25,-1045.49 245.25,-1051.49 245.25,-1057.49 245.25,-1057.49 245.25,-1086.49 245.25,-1086.49 245.25,-1092.49 239.25,-1098.49 233.25,-1098.49 233.25,-1098.49 178.75,-1098.49 178.75,-1098.49 172.75,-1098.49 166.75,-1092.49 166.75,-1086.49 166.75,-1086.49 166.75,-1057.49 166.75,-1057.49 166.75,-1051.49 172.75,-1045.49 178.75,-1045.49"/>
<text text-anchor="middle" x="206" y="-1085.94" font-family="Helvetica,sans-Serif" font-weight="bold" font-size="9.00">types</text>
</g>
<g id="clust34" class="cluster">
<title>cluster_src/pages</title>
<path fill="#ffffff" stroke="black" stroke-width="2" d="M630.25,-1025.49C630.25,-1025.49 1039.75,-1025.49 1039.75,-1025.49 1045.75,-1025.49 1051.75,-1031.49 1051.75,-1037.49 1051.75,-1037.49 1051.75,-1385.49 1051.75,-1385.49 1051.75,-1391.49 1045.75,-1397.49 1039.75,-1397.49 1039.75,-1397.49 630.25,-1397.49 630.25,-1397.49 624.25,-1397.49 618.25,-1391.49 618.25,-1385.49 618.25,-1385.49 618.25,-1037.49 618.25,-1037.49 618.25,-1031.49 624.25,-1025.49 630.25,-1025.49"/>
<text text-anchor="middle" x="835" y="-1384.94" font-family="Helvetica,sans-Serif" font-weight="bold" font-size="9.00">pages</text>
</g>
<g id="clust35" class="cluster">
<title>cluster_src/pages/MainPage</title>
<path fill="#ffffff" stroke="black" stroke-width="2" d="M642.38,-1033.49C642.38,-1033.49 1027.62,-1033.49 1027.62,-1033.49 1033.62,-1033.49 1039.62,-1039.49 1039.62,-1045.49 1039.62,-1045.49 1039.62,-1201.49 1039.62,-1201.49 1039.62,-1207.49 1033.62,-1213.49 1027.62,-1213.49 1027.62,-1213.49 642.38,-1213.49 642.38,-1213.49 636.38,-1213.49 630.38,-1207.49 630.38,-1201.49 630.38,-1201.49 630.38,-1045.49 630.38,-1045.49 630.38,-1039.49 636.38,-1033.49 642.38,-1033.49"/>
<text text-anchor="middle" x="835" y="-1200.94" font-family="Helvetica,sans-Serif" font-weight="bold" font-size="9.00">MainPage</text>
</g>
<g id="clust36" class="cluster">
<title>cluster_src/pages/MainPage/ui</title>
<path fill="#ffffff" stroke="black" stroke-width="2" d="M650.38,-1041.49C650.38,-1041.49 1019.62,-1041.49 1019.62,-1041.49 1025.62,-1041.49 1031.62,-1047.49 1031.62,-1053.49 1031.62,-1053.49 1031.62,-1148.49 1031.62,-1148.49 1031.62,-1154.49 1025.62,-1160.49 1019.62,-1160.49 1019.62,-1160.49 650.38,-1160.49 650.38,-1160.49 644.38,-1160.49 638.38,-1154.49 638.38,-1148.49 638.38,-1148.49 638.38,-1053.49 638.38,-1053.49 638.38,-1047.49 644.38,-1041.49 650.38,-1041.49"/>
<text text-anchor="middle" x="835" y="-1147.94" font-family="Helvetica,sans-Serif" font-weight="bold" font-size="9.00">ui</text>
</g>
<g id="clust37" class="cluster">
<title>cluster_src/pages/MainPage/ui/MainPage</title>
<path fill="#ffffff" stroke="black" stroke-width="2" d="M658.38,-1049.49C658.38,-1049.49 1011.62,-1049.49 1011.62,-1049.49 1017.62,-1049.49 1023.62,-1055.49 1023.62,-1061.49 1023.62,-1061.49 1023.62,-1121.49 1023.62,-1121.49 1023.62,-1127.49 1017.62,-1133.49 1011.62,-1133.49 1011.62,-1133.49 658.38,-1133.49 658.38,-1133.49 652.38,-1133.49 646.38,-1127.49 646.38,-1121.49 646.38,-1121.49 646.38,-1061.49 646.38,-1061.49 646.38,-1055.49 652.38,-1049.49 658.38,-1049.49"/>
<text text-anchor="middle" x="835" y="-1120.94" font-family="Helvetica,sans-Serif" font-weight="bold" font-size="9.00">MainPage</text>
</g>
<g id="clust38" class="cluster">
<title>cluster_src/pages/MangaPage</title>
<path fill="#ffffff" stroke="black" stroke-width="2" d="M638.25,-1221.49C638.25,-1221.49 1031.75,-1221.49 1031.75,-1221.49 1037.75,-1221.49 1043.75,-1227.49 1043.75,-1233.49 1043.75,-1233.49 1043.75,-1358.49 1043.75,-1358.49 1043.75,-1364.49 1037.75,-1370.49 1031.75,-1370.49 1031.75,-1370.49 638.25,-1370.49 638.25,-1370.49 632.25,-1370.49 626.25,-1364.49 626.25,-1358.49 626.25,-1358.49 626.25,-1233.49 626.25,-1233.49 626.25,-1227.49 632.25,-1221.49 638.25,-1221.49"/>
<text text-anchor="middle" x="835" y="-1357.94" font-family="Helvetica,sans-Serif" font-weight="bold" font-size="9.00">MangaPage</text>
</g>
<g id="clust39" class="cluster">
<title>cluster_src/pages/MangaPage/ui</title>
<path fill="#ffffff" stroke="black" stroke-width="2" d="M646.25,-1229.49C646.25,-1229.49 1023.75,-1229.49 1023.75,-1229.49 1029.75,-1229.49 1035.75,-1235.49 1035.75,-1241.49 1035.75,-1241.49 1035.75,-1305.49 1035.75,-1305.49 1035.75,-1311.49 1029.75,-1317.49 1023.75,-1317.49 1023.75,-1317.49 646.25,-1317.49 646.25,-1317.49 640.25,-1317.49 634.25,-1311.49 634.25,-1305.49 634.25,-1305.49 634.25,-1241.49 634.25,-1241.49 634.25,-1235.49 640.25,-1229.49 646.25,-1229.49"/>
<text text-anchor="middle" x="835" y="-1304.94" font-family="Helvetica,sans-Serif" font-weight="bold" font-size="9.00">ui</text>
</g>
<g id="clust40" class="cluster">
<title>cluster_src/pages/MangaPage/ui/MangaPage</title>
<path fill="#ffffff" stroke="black" stroke-width="2" d="M654.25,-1237.49C654.25,-1237.49 1015.75,-1237.49 1015.75,-1237.49 1021.75,-1237.49 1027.75,-1243.49 1027.75,-1249.49 1027.75,-1249.49 1027.75,-1278.49 1027.75,-1278.49 1027.75,-1284.49 1021.75,-1290.49 1015.75,-1290.49 1015.75,-1290.49 654.25,-1290.49 654.25,-1290.49 648.25,-1290.49 642.25,-1284.49 642.25,-1278.49 642.25,-1278.49 642.25,-1249.49 642.25,-1249.49 642.25,-1243.49 648.25,-1237.49 654.25,-1237.49"/>
<text text-anchor="middle" x="835" y="-1277.94" font-family="Helvetica,sans-Serif" font-weight="bold" font-size="9.00">MangaPage</text>
</g>
<g id="clust41" class="cluster">
<title>cluster_src/widgets</title>
<path fill="#ffffff" stroke="black" stroke-width="2" d="M265.25,-1213.49C265.25,-1213.49 598.25,-1213.49 598.25,-1213.49 604.25,-1213.49 610.25,-1219.49 610.25,-1225.49 610.25,-1225.49 610.25,-1385.49 610.25,-1385.49 610.25,-1391.49 604.25,-1397.49 598.25,-1397.49 598.25,-1397.49 265.25,-1397.49 265.25,-1397.49 259.25,-1397.49 253.25,-1391.49 253.25,-1385.49 253.25,-1385.49 253.25,-1225.49 253.25,-1225.49 253.25,-1219.49 259.25,-1213.49 265.25,-1213.49"/>
<text text-anchor="middle" x="431.75" y="-1384.94" font-family="Helvetica,sans-Serif" font-weight="bold" font-size="9.00">widgets</text>
</g>
<g id="clust42" class="cluster">
<title>cluster_src/widgets/Header</title>
<path fill="#ffffff" stroke="black" stroke-width="2" d="M273.25,-1221.49C273.25,-1221.49 590.25,-1221.49 590.25,-1221.49 596.25,-1221.49 602.25,-1227.49 602.25,-1233.49 602.25,-1233.49 602.25,-1358.49 602.25,-1358.49 602.25,-1364.49 596.25,-1370.49 590.25,-1370.49 590.25,-1370.49 273.25,-1370.49 273.25,-1370.49 267.25,-1370.49 261.25,-1364.49 261.25,-1358.49 261.25,-1358.49 261.25,-1233.49 261.25,-1233.49 261.25,-1227.49 267.25,-1221.49 273.25,-1221.49"/>
<text text-anchor="middle" x="431.75" y="-1357.94" font-family="Helvetica,sans-Serif" font-weight="bold" font-size="9.00">Header</text>
</g>
<g id="clust43" class="cluster">
<title>cluster_src/widgets/Header/ui</title>
<path fill="#ffffff" stroke="black" stroke-width="2" d="M281.25,-1229.49C281.25,-1229.49 582.25,-1229.49 582.25,-1229.49 588.25,-1229.49 594.25,-1235.49 594.25,-1241.49 594.25,-1241.49 594.25,-1305.49 594.25,-1305.49 594.25,-1311.49 588.25,-1317.49 582.25,-1317.49 582.25,-1317.49 281.25,-1317.49 281.25,-1317.49 275.25,-1317.49 269.25,-1311.49 269.25,-1305.49 269.25,-1305.49 269.25,-1241.49 269.25,-1241.49 269.25,-1235.49 275.25,-1229.49 281.25,-1229.49"/>
<text text-anchor="middle" x="431.75" y="-1304.94" font-family="Helvetica,sans-Serif" font-weight="bold" font-size="9.00">ui</text>
</g>
<g id="clust44" class="cluster">
<title>cluster_src/widgets/Header/ui/Header</title>
<path fill="#ffffff" stroke="black" stroke-width="2" d="M289.25,-1237.49C289.25,-1237.49 574.25,-1237.49 574.25,-1237.49 580.25,-1237.49 586.25,-1243.49 586.25,-1249.49 586.25,-1249.49 586.25,-1278.49 586.25,-1278.49 586.25,-1284.49 580.25,-1290.49 574.25,-1290.49 574.25,-1290.49 289.25,-1290.49 289.25,-1290.49 283.25,-1290.49 277.25,-1284.49 277.25,-1278.49 277.25,-1278.49 277.25,-1249.49 277.25,-1249.49 277.25,-1243.49 283.25,-1237.49 289.25,-1237.49"/>
<text text-anchor="middle" x="431.75" y="-1277.94" font-family="Helvetica,sans-Serif" font-weight="bold" font-size="9.00">Header</text>
</g>
<!-- ../../packages/model/src/config/router/const/mangasite.ts -->
<g id="node1" class="node">
<title>../../packages/model/src/config/router/const/mangasite.ts</title>
<g id="a_node1"><a xlink:href="../../packages/model/src/config/router/const/mangasite.ts" xlink:title="mangasite.ts">
<path fill="#ddfeff" stroke="black" d="M1671.83,-793.74C1671.83,-793.74 1616.42,-793.74 1616.42,-793.74 1613.33,-793.74 1610.25,-790.66 1610.25,-787.57 1610.25,-787.57 1610.25,-781.41 1610.25,-781.41 1610.25,-778.32 1613.33,-775.24 1616.42,-775.24 1616.42,-775.24 1671.83,-775.24 1671.83,-775.24 1674.92,-775.24 1678,-778.32 1678,-781.41 1678,-781.41 1678,-787.57 1678,-787.57 1678,-790.66 1674.92,-793.74 1671.83,-793.74"/>
<text text-anchor="start" x="1618.25" y="-781.19" font-family="Helvetica,sans-Serif" font-size="9.00">mangasite.ts</text>
</a>
</g>
</g>
<!-- ../../packages/model/src/config/router/mangaSiteRouter.ts -->
<g id="node2" class="node">
<title>../../packages/model/src/config/router/mangaSiteRouter.ts</title>
<g id="a_node2"><a xlink:href="../../packages/model/src/config/router/mangaSiteRouter.ts" xlink:title="mangaSiteRouter.ts">
<path fill="#ddfeff" stroke="black" d="M1489.83,-793.74C1489.83,-793.74 1405.92,-793.74 1405.92,-793.74 1402.83,-793.74 1399.75,-790.66 1399.75,-787.57 1399.75,-787.57 1399.75,-781.41 1399.75,-781.41 1399.75,-778.32 1402.83,-775.24 1405.92,-775.24 1405.92,-775.24 1489.83,-775.24 1489.83,-775.24 1492.92,-775.24 1496,-778.32 1496,-781.41 1496,-781.41 1496,-787.57 1496,-787.57 1496,-790.66 1492.92,-793.74 1489.83,-793.74"/>
<text text-anchor="start" x="1407.75" y="-781.19" font-family="Helvetica,sans-Serif" font-size="9.00">mangaSiteRouter.ts</text>
</a>
</g>
</g>
<!-- ../../packages/model/src/config/router/mangaSiteRouter.ts&#45;&gt;../../packages/model/src/config/router/const/mangasite.ts -->
<g id="edge1" class="edge">
<title>../../packages/model/src/config/router/mangaSiteRouter.ts&#45;&gt;../../packages/model/src/config/router/const/mangasite.ts</title>
<path fill="none" stroke="#000000" stroke-width="2" stroke-opacity="0.200000" d="M1470.13,-774.82C1480.17,-770.76 1492.47,-766.52 1504,-764.49 1541.64,-757.87 1552.4,-757.65 1590,-764.49 1598.19,-765.98 1606.76,-768.66 1614.56,-771.59"/>
<polygon fill="#000000" fill-opacity="0.200000" stroke="#000000" stroke-width="2" stroke-opacity="0.200000" points="1613.51,-773.43 1619.86,-773.7 1615.06,-769.53 1613.51,-773.43"/>
</g>
<!-- ../../packages/model/src/config/router/types/router.ts -->
<g id="node3" class="node">
<title>../../packages/model/src/config/router/types/router.ts</title>
<g id="a_node3"><a xlink:href="../../packages/model/src/config/router/types/router.ts" xlink:title="router.ts">
<path fill="#ddfeff" stroke="black" d="M1559.83,-793.74C1559.83,-793.74 1518.17,-793.74 1518.17,-793.74 1515.08,-793.74 1512,-790.66 1512,-787.57 1512,-787.57 1512,-781.41 1512,-781.41 1512,-778.32 1515.08,-775.24 1518.17,-775.24 1518.17,-775.24 1559.83,-775.24 1559.83,-775.24 1562.92,-775.24 1566,-778.32 1566,-781.41 1566,-781.41 1566,-787.57 1566,-787.57 1566,-790.66 1562.92,-793.74 1559.83,-793.74"/>
<text text-anchor="start" x="1522.88" y="-781.19" font-family="Helvetica,sans-Serif" font-size="9.00">router.ts</text>
</a>
</g>
</g>
<!-- ../../packages/model/src/config/router/mangaSiteRouter.ts&#45;&gt;../../packages/model/src/config/router/types/router.ts -->
<g id="edge2" class="edge">
<title>../../packages/model/src/config/router/mangaSiteRouter.ts&#45;&gt;../../packages/model/src/config/router/types/router.ts</title>
<path fill="none" stroke="#000000" stroke-opacity="0.200000" d="M1496.31,-784.49C1499.13,-784.49 1501.95,-784.49 1504.7,-784.49"/>
<polygon fill="none" stroke="#000000" stroke-opacity="0.200000" points="1504.29,-786.59 1510.29,-784.49 1504.29,-782.39 1504.29,-786.59"/>
</g>
<!-- ../../packages/model/src/config/router/types/router.ts&#45;&gt;../../packages/model/src/config/router/const/mangasite.ts -->
<g id="edge4" class="edge">
<title>../../packages/model/src/config/router/types/router.ts&#45;&gt;../../packages/model/src/config/router/const/mangasite.ts</title>
<path fill="none" stroke="#000000" stroke-width="2" stroke-opacity="0.200000" d="M1566.29,-784.49C1576.85,-784.49 1589.28,-784.49 1601.04,-784.49"/>
<polygon fill="#000000" fill-opacity="0.200000" stroke="#000000" stroke-width="2" stroke-opacity="0.200000" points="1600.82,-786.59 1606.82,-784.49 1600.82,-782.39 1600.82,-786.59"/>
</g>
<!-- ../../packages/model/src/types/common/common.ts -->
<g id="node4" class="node">
<title>../../packages/model/src/types/common/common.ts</title>
<g id="a_node4"><a xlink:href="../../packages/model/src/types/common/common.ts" xlink:title="common.ts">
<path fill="#ddfeff" stroke="black" d="M1668.08,-591.74C1668.08,-591.74 1620.17,-591.74 1620.17,-591.74 1617.08,-591.74 1614,-588.66 1614,-585.57 1614,-585.57 1614,-579.41 1614,-579.41 1614,-576.32 1617.08,-573.24 1620.17,-573.24 1620.17,-573.24 1668.08,-573.24 1668.08,-573.24 1671.17,-573.24 1674.25,-576.32 1674.25,-579.41 1674.25,-579.41 1674.25,-585.57 1674.25,-585.57 1674.25,-588.66 1671.17,-591.74 1668.08,-591.74"/>
<text text-anchor="start" x="1622" y="-579.19" font-family="Helvetica,sans-Serif" font-size="9.00">common.ts</text>
</a>
</g>
</g>
<!-- ../../packages/model/src/config/router/types/router.ts&#45;&gt;../../packages/model/src/types/common/common.ts -->
<g id="edge3" class="edge">
<title>../../packages/model/src/config/router/types/router.ts&#45;&gt;../../packages/model/src/types/common/common.ts</title>
<path fill="none" stroke="#000000" stroke-opacity="0.200000" d="M1544.97,-774.75C1561.48,-742.41 1614.55,-638.45 1634.99,-598.42"/>
<polygon fill="none" stroke="#000000" stroke-opacity="0.200000" points="1636.65,-599.78 1637.51,-593.48 1632.91,-597.87 1636.65,-599.78"/>
</g>
<!-- ../../packages/model/src/lib/classNames/classNames.ts -->
<g id="node5" class="node">
<title>../../packages/model/src/lib/classNames/classNames.ts</title>
<g id="a_node5"><a xlink:href="../../packages/model/src/lib/classNames/classNames.ts" xlink:title="classNames.ts">
<path fill="#ddfeff" stroke="black" d="M1177.08,-652.74C1177.08,-652.74 1114.17,-652.74 1114.17,-652.74 1111.08,-652.74 1108,-649.66 1108,-646.57 1108,-646.57 1108,-640.41 1108,-640.41 1108,-637.32 1111.08,-634.24 1114.17,-634.24 1114.17,-634.24 1177.08,-634.24 1177.08,-634.24 1180.17,-634.24 1183.25,-637.32 1183.25,-640.41 1183.25,-640.41 1183.25,-646.57 1183.25,-646.57 1183.25,-649.66 1180.17,-652.74 1177.08,-652.74"/>
<text text-anchor="start" x="1116" y="-640.19" font-family="Helvetica,sans-Serif" font-size="9.00">classNames.ts</text>
</a>
</g>
</g>
<!-- ../../packages/model/src/lib/classNames/types/classNamesType.ts -->
<g id="node6" class="node">
<title>../../packages/model/src/lib/classNames/types/classNamesType.ts</title>
<g id="a_node6"><a xlink:href="../../packages/model/src/lib/classNames/types/classNamesType.ts" xlink:title="classNamesType.ts">
<path fill="#ddfeff" stroke="black" d="M1330.83,-652.74C1330.83,-652.74 1247.67,-652.74 1247.67,-652.74 1244.58,-652.74 1241.5,-649.66 1241.5,-646.57 1241.5,-646.57 1241.5,-640.41 1241.5,-640.41 1241.5,-637.32 1244.58,-634.24 1247.67,-634.24 1247.67,-634.24 1330.83,-634.24 1330.83,-634.24 1333.92,-634.24 1337,-637.32 1337,-640.41 1337,-640.41 1337,-646.57 1337,-646.57 1337,-649.66 1333.92,-652.74 1330.83,-652.74"/>
<text text-anchor="start" x="1249.5" y="-640.19" font-family="Helvetica,sans-Serif" font-size="9.00">classNamesType.ts</text>
</a>
</g>
</g>
<!-- ../../packages/model/src/lib/classNames/classNames.ts&#45;&gt;../../packages/model/src/lib/classNames/types/classNamesType.ts -->
<g id="edge5" class="edge">
<title>../../packages/model/src/lib/classNames/classNames.ts&#45;&gt;../../packages/model/src/lib/classNames/types/classNamesType.ts</title>
<path fill="none" stroke="#000000" stroke-opacity="0.200000" d="M1183.47,-643.49C1198.88,-643.49 1217.12,-643.49 1234.02,-643.49"/>
<polygon fill="none" stroke="#000000" stroke-opacity="0.200000" points="1233.65,-645.59 1239.65,-643.49 1233.65,-641.39 1233.65,-645.59"/>
</g>
<!-- ../../packages/model/src/lib/theme/ThemeContext.tsx -->
<g id="node7" class="node">
<title>../../packages/model/src/lib/theme/ThemeContext.tsx</title>
<g id="a_node7"><a xlink:href="../../packages/model/src/lib/theme/ThemeContext.tsx" xlink:title="ThemeContext.tsx">
<path fill="#bbfeff" stroke="black" d="M1327.83,-555.74C1327.83,-555.74 1250.67,-555.74 1250.67,-555.74 1247.58,-555.74 1244.5,-552.66 1244.5,-549.57 1244.5,-549.57 1244.5,-543.41 1244.5,-543.41 1244.5,-540.32 1247.58,-537.24 1250.67,-537.24 1250.67,-537.24 1327.83,-537.24 1327.83,-537.24 1330.92,-537.24 1334,-540.32 1334,-543.41 1334,-543.41 1334,-549.57 1334,-549.57 1334,-552.66 1330.92,-555.74 1327.83,-555.74"/>
<text text-anchor="start" x="1252.5" y="-543.19" font-family="Helvetica,sans-Serif" font-size="9.00">ThemeContext.tsx</text>
</a>
</g>
</g>
<!-- ../../packages/model/src/lib/theme/types/theme.ts -->
<g id="node8" class="node">
<title>../../packages/model/src/lib/theme/types/theme.ts</title>
<g id="a_node8"><a xlink:href="../../packages/model/src/lib/theme/types/theme.ts" xlink:title="theme.ts">
<path fill="#ddfeff" stroke="black" d="M1468.71,-546.74C1468.71,-546.74 1427.04,-546.74 1427.04,-546.74 1423.96,-546.74 1420.88,-543.66 1420.88,-540.57 1420.88,-540.57 1420.88,-534.41 1420.88,-534.41 1420.88,-531.32 1423.96,-528.24 1427.04,-528.24 1427.04,-528.24 1468.71,-528.24 1468.71,-528.24 1471.79,-528.24 1474.88,-531.32 1474.88,-534.41 1474.88,-534.41 1474.88,-540.57 1474.88,-540.57 1474.88,-543.66 1471.79,-546.74 1468.71,-546.74"/>
<text text-anchor="start" x="1430.62" y="-534.19" font-family="Helvetica,sans-Serif" font-size="9.00">theme.ts</text>
</a>
</g>
</g>
<!-- ../../packages/model/src/lib/theme/ThemeContext.tsx&#45;&gt;../../packages/model/src/lib/theme/types/theme.ts -->
<g id="edge6" class="edge">
<title>../../packages/model/src/lib/theme/ThemeContext.tsx&#45;&gt;../../packages/model/src/lib/theme/types/theme.ts</title>
<path fill="none" stroke="#000000" stroke-opacity="0.200000" d="M1334.3,-543.96C1359.44,-542.51 1390.46,-540.73 1413.57,-539.4"/>
<polygon fill="none" stroke="#000000" stroke-opacity="0.200000" points="1413.39,-541.52 1419.26,-539.08 1413.15,-537.32 1413.39,-541.52"/>
</g>
<!-- ../../packages/model/src/lib/theme/types/theme.ts&#45;&gt;../../packages/model/src/types/common/common.ts -->
<g id="edge11" class="edge">
<title>../../packages/model/src/lib/theme/types/theme.ts&#45;&gt;../../packages/model/src/types/common/common.ts</title>
<path fill="none" stroke="#000000" stroke-opacity="0.200000" d="M1458.45,-546.92C1468.73,-556.36 1486.03,-570.35 1504,-576.49 1537.28,-587.87 1577.67,-588.25 1606.34,-586.46"/>
<polygon fill="none" stroke="#000000" stroke-opacity="0.200000" points="1606.39,-588.56 1612.22,-586.04 1606.09,-584.37 1606.39,-588.56"/>
</g>
<!-- ../../packages/model/src/lib/theme/const/theme.ts -->
<g id="node10" class="node">
<title>../../packages/model/src/lib/theme/const/theme.ts</title>
<g id="a_node10"><a xlink:href="../../packages/model/src/lib/theme/const/theme.ts" xlink:title="theme.ts">
<path fill="#ddfeff" stroke="black" d="M1559.83,-546.74C1559.83,-546.74 1518.17,-546.74 1518.17,-546.74 1515.08,-546.74 1512,-543.66 1512,-540.57 1512,-540.57 1512,-534.41 1512,-534.41 1512,-531.32 1515.08,-528.24 1518.17,-528.24 1518.17,-528.24 1559.83,-528.24 1559.83,-528.24 1562.92,-528.24 1566,-531.32 1566,-534.41 1566,-534.41 1566,-540.57 1566,-540.57 1566,-543.66 1562.92,-546.74 1559.83,-546.74"/>
<text text-anchor="start" x="1521.75" y="-534.19" font-family="Helvetica,sans-Serif" font-size="9.00">theme.ts</text>
</a>
</g>
</g>
<!-- ../../packages/model/src/lib/theme/types/theme.ts&#45;&gt;../../packages/model/src/lib/theme/const/theme.ts -->
<g id="edge12" class="edge">
<title>../../packages/model/src/lib/theme/types/theme.ts&#45;&gt;../../packages/model/src/lib/theme/const/theme.ts</title>
<path fill="none" stroke="#000000" stroke-width="2" stroke-opacity="0.200000" d="M1475.13,-537.49C1483.76,-537.49 1493.49,-537.49 1502.68,-537.49"/>
<polygon fill="#000000" fill-opacity="0.200000" stroke="#000000" stroke-width="2" stroke-opacity="0.200000" points="1502.59,-539.59 1508.59,-537.49 1502.59,-535.39 1502.59,-539.59"/>
</g>
<!-- ../../packages/model/src/lib/theme/ThemeProvider.tsx -->
<g id="node9" class="node">
<title>../../packages/model/src/lib/theme/ThemeProvider.tsx</title>
<g id="a_node9"><a xlink:href="../../packages/model/src/lib/theme/ThemeProvider.tsx" xlink:title="ThemeProvider.tsx">
<path fill="#bbfeff" stroke="black" d="M1185.33,-530.74C1185.33,-530.74 1105.92,-530.74 1105.92,-530.74 1102.83,-530.74 1099.75,-527.66 1099.75,-524.57 1099.75,-524.57 1099.75,-518.41 1099.75,-518.41 1099.75,-515.32 1102.83,-512.24 1105.92,-512.24 1105.92,-512.24 1185.33,-512.24 1185.33,-512.24 1188.42,-512.24 1191.5,-515.32 1191.5,-518.41 1191.5,-518.41 1191.5,-524.57 1191.5,-524.57 1191.5,-527.66 1188.42,-530.74 1185.33,-530.74"/>
<text text-anchor="start" x="1107.75" y="-518.19" font-family="Helvetica,sans-Serif" font-size="9.00">ThemeProvider.tsx</text>
</a>
</g>
</g>
<!-- ../../packages/model/src/lib/theme/ThemeProvider.tsx&#45;&gt;../../packages/model/src/lib/theme/ThemeContext.tsx -->
<g id="edge8" class="edge">
<title>../../packages/model/src/lib/theme/ThemeProvider.tsx&#45;&gt;../../packages/model/src/lib/theme/ThemeContext.tsx</title>
<path fill="none" stroke="#000000" stroke-width="2" stroke-opacity="0.200000" d="M1191.83,-529.47C1205.77,-531.93 1221.24,-534.66 1235.64,-537.2"/>
<polygon fill="#000000" fill-opacity="0.200000" stroke="#000000" stroke-width="2" stroke-opacity="0.200000" points="1235.19,-539.26 1241.46,-538.23 1235.92,-535.12 1235.19,-539.26"/>
</g>
<!-- ../../packages/model/src/lib/theme/ThemeProvider.tsx&#45;&gt;../../packages/model/src/lib/theme/types/theme.ts -->
<g id="edge9" class="edge">
<title>../../packages/model/src/lib/theme/ThemeProvider.tsx&#45;&gt;../../packages/model/src/lib/theme/types/theme.ts</title>
<path fill="none" stroke="#000000" stroke-opacity="0.200000" d="M1191.87,-522.92C1238.11,-524.52 1311.97,-527.41 1375.75,-531.49 1388.04,-532.28 1401.51,-533.36 1413.38,-534.38"/>
<polygon fill="none" stroke="#000000" stroke-opacity="0.200000" points="1412.88,-536.45 1419.04,-534.88 1413.25,-532.26 1412.88,-536.45"/>
</g>
<!-- ../../packages/model/src/lib/theme/ThemeProvider.tsx&#45;&gt;../../packages/model/src/lib/theme/const/theme.ts -->
<g id="edge7" class="edge">
<title>../../packages/model/src/lib/theme/ThemeProvider.tsx&#45;&gt;../../packages/model/src/lib/theme/const/theme.ts</title>
<path fill="none" stroke="#000000" stroke-width="2" stroke-opacity="0.200000" d="M1192,-514.36C1259.32,-505.25 1389.2,-493.36 1496,-517.49 1502.14,-518.88 1508.43,-521.27 1514.22,-523.94"/>
<polygon fill="#000000" fill-opacity="0.200000" stroke="#000000" stroke-width="2" stroke-opacity="0.200000" points="1513.24,-525.79 1519.55,-526.59 1515.11,-522.03 1513.24,-525.79"/>
</g>
<!-- ../../packages/model/src/lib/theme/const/theme.ts&#45;&gt;../../packages/model/src/types/common/common.ts -->
<g id="edge10" class="edge">
<title>../../packages/model/src/lib/theme/const/theme.ts&#45;&gt;../../packages/model/src/types/common/common.ts</title>
<path fill="none" stroke="#000000" stroke-width="2" stroke-opacity="0.200000" d="M1562.12,-547.14C1576.94,-553.61 1596.63,-562.2 1612.89,-569.3"/>
<polygon fill="#000000" fill-opacity="0.200000" stroke="#000000" stroke-width="2" stroke-opacity="0.200000" points="1611.93,-571.17 1618.26,-571.64 1613.6,-567.32 1611.93,-571.17"/>
</g>
<!-- ../../packages/model/src/lib/theme/useTheme.ts -->
<g id="node11" class="node">
<title>../../packages/model/src/lib/theme/useTheme.ts</title>
<g id="a_node11"><a xlink:href="../../packages/model/src/lib/theme/useTheme.ts" xlink:title="useTheme.ts">
<path fill="#ddfeff" stroke="black" d="M1173.71,-580.74C1173.71,-580.74 1117.54,-580.74 1117.54,-580.74 1114.46,-580.74 1111.38,-577.66 1111.38,-574.57 1111.38,-574.57 1111.38,-568.41 1111.38,-568.41 1111.38,-565.32 1114.46,-562.24 1117.54,-562.24 1117.54,-562.24 1173.71,-562.24 1173.71,-562.24 1176.79,-562.24 1179.88,-565.32 1179.88,-568.41 1179.88,-568.41 1179.88,-574.57 1179.88,-574.57 1179.88,-577.66 1176.79,-580.74 1173.71,-580.74"/>
<text text-anchor="start" x="1119.38" y="-568.19" font-family="Helvetica,sans-Serif" font-size="9.00">useTheme.ts</text>
</a>
</g>
</g>
<!-- ../../packages/model/src/lib/theme/useTheme.ts&#45;&gt;../../packages/model/src/lib/theme/ThemeContext.tsx -->
<g id="edge14" class="edge">
<title>../../packages/model/src/lib/theme/useTheme.ts&#45;&gt;../../packages/model/src/lib/theme/ThemeContext.tsx</title>
<path fill="none" stroke="#000000" stroke-width="2" stroke-opacity="0.200000" d="M1180.19,-565.57C1196.71,-562.65 1217.02,-559.06 1235.55,-555.79"/>
<polygon fill="#000000" fill-opacity="0.200000" stroke="#000000" stroke-width="2" stroke-opacity="0.200000" points="1235.68,-557.9 1241.22,-554.79 1234.95,-553.77 1235.68,-557.9"/>
</g>
<!-- ../../packages/model/src/lib/theme/useTheme.ts&#45;&gt;../../packages/model/src/lib/theme/types/theme.ts -->
<g id="edge15" class="edge">
<title>../../packages/model/src/lib/theme/useTheme.ts&#45;&gt;../../packages/model/src/lib/theme/types/theme.ts</title>
<path fill="none" stroke="#000000" stroke-opacity="0.200000" d="M1180,-573.52C1235.24,-576.31 1342.86,-579.15 1375.75,-561.49 1381.08,-558.63 1378.67,-553.77 1383.75,-550.49 1392.53,-544.83 1403.3,-541.57 1413.44,-539.71"/>
<polygon fill="none" stroke="#000000" stroke-opacity="0.200000" points="1413.57,-541.82 1419.18,-538.82 1412.93,-537.67 1413.57,-541.82"/>
</g>
<!-- ../../packages/model/src/lib/theme/useTheme.ts&#45;&gt;../../packages/model/src/lib/theme/const/theme.ts -->
<g id="edge13" class="edge">
<title>../../packages/model/src/lib/theme/useTheme.ts&#45;&gt;../../packages/model/src/lib/theme/const/theme.ts</title>
<path fill="none" stroke="#000000" stroke-width="2" stroke-opacity="0.200000" d="M1179.89,-580.02C1243.79,-594.71 1387.02,-619.28 1496,-576.49 1507.72,-571.89 1518.12,-562.3 1525.64,-553.79"/>
<polygon fill="#000000" fill-opacity="0.200000" stroke="#000000" stroke-width="2" stroke-opacity="0.200000" points="1527.1,-555.31 1529.31,-549.35 1523.87,-552.63 1527.1,-555.31"/>
</g>
<!-- ../../packages/ui/src/layout/HeaderLayout/HeaderLayout.module.scss -->
<g id="node12" class="node">
<title>../../packages/ui/src/layout/HeaderLayout/HeaderLayout.module.scss</title>
<g id="a_node12"><a xlink:href="../../packages/ui/src/layout/HeaderLayout/HeaderLayout.module.scss" xlink:title="HeaderLayout.module.scss">
<path fill="#ffffcc" stroke="black" d="M1203.33,-204.74C1203.33,-204.74 1087.92,-204.74 1087.92,-204.74 1084.83,-204.74 1081.75,-201.66 1081.75,-198.57 1081.75,-198.57 1081.75,-192.41 1081.75,-192.41 1081.75,-189.32 1084.83,-186.24 1087.92,-186.24 1087.92,-186.24 1203.33,-186.24 1203.33,-186.24 1206.42,-186.24 1209.5,-189.32 1209.5,-192.41 1209.5,-192.41 1209.5,-198.57 1209.5,-198.57 1209.5,-201.66 1206.42,-204.74 1203.33,-204.74"/>
<text text-anchor="start" x="1089.75" y="-192.19" font-family="Helvetica,sans-Serif" font-size="9.00">HeaderLayout.module.scss</text>
</a>
</g>
</g>
<!-- ../../packages/ui/src/layout/HeaderLayout/HeaderLayout.tsx -->
<g id="node13" class="node">
<title>../../packages/ui/src/layout/HeaderLayout/HeaderLayout.tsx</title>
<g id="a_node13"><a xlink:href="../../packages/ui/src/layout/HeaderLayout/HeaderLayout.tsx" xlink:title="HeaderLayout.tsx">
<path fill="#bbfeff" stroke="black" d="M997.83,-204.74C997.83,-204.74 922.17,-204.74 922.17,-204.74 919.08,-204.74 916,-201.66 916,-198.57 916,-198.57 916,-192.41 916,-192.41 916,-189.32 919.08,-186.24 922.17,-186.24 922.17,-186.24 997.83,-186.24 997.83,-186.24 1000.92,-186.24 1004,-189.32 1004,-192.41 1004,-192.41 1004,-198.57 1004,-198.57 1004,-201.66 1000.92,-204.74 997.83,-204.74"/>
<text text-anchor="start" x="924" y="-192.19" font-family="Helvetica,sans-Serif" font-size="9.00">HeaderLayout.tsx</text>
</a>
</g>
</g>
<!-- ../../packages/ui/src/layout/HeaderLayout/HeaderLayout.tsx&#45;&gt;../../packages/model/src/lib/classNames/classNames.ts -->
<g id="edge18" class="edge">
<title>../../packages/ui/src/layout/HeaderLayout/HeaderLayout.tsx&#45;&gt;../../packages/model/src/lib/classNames/classNames.ts</title>
<path fill="none" stroke="#000000" stroke-width="2" stroke-opacity="0.200000" d="M971.04,-204.93C992.24,-225.62 1041.13,-277.5 1059.75,-332.49 1069.77,-362.08 1049.76,-587.95 1067.75,-613.49 1075.26,-624.15 1087.14,-631.02 1099.34,-635.45"/>
<polygon fill="#000000" fill-opacity="0.200000" stroke="#000000" stroke-width="2" stroke-opacity="0.200000" points="1098.55,-637.4 1104.9,-637.23 1099.83,-633.4 1098.55,-637.4"/>
</g>
<!-- ../../packages/ui/src/layout/HeaderLayout/HeaderLayout.tsx&#45;&gt;../../packages/ui/src/layout/HeaderLayout/HeaderLayout.module.scss -->
<g id="edge17" class="edge">
<title>../../packages/ui/src/layout/HeaderLayout/HeaderLayout.tsx&#45;&gt;../../packages/ui/src/layout/HeaderLayout/HeaderLayout.module.scss</title>
<path fill="none" stroke="#000000" stroke-width="2" stroke-opacity="0.200000" d="M1004.05,-195.49C1024.45,-195.49 1049.37,-195.49 1072.53,-195.49"/>
<polygon fill="#000000" fill-opacity="0.200000" stroke="#000000" stroke-width="2" stroke-opacity="0.200000" points="1072.28,-197.59 1078.28,-195.49 1072.28,-193.39 1072.28,-197.59"/>
</g>
<!-- ../../packages/ui/src/shared/Container/Container.tsx -->
<g id="node14" class="node">
<title>../../packages/ui/src/shared/Container/Container.tsx</title>
<g id="a_node14"><a xlink:href="../../packages/ui/src/shared/Container/Container.tsx" xlink:title="Container.tsx">
<path fill="#bbfeff" stroke="black" d="M1174.08,-300.74C1174.08,-300.74 1117.17,-300.74 1117.17,-300.74 1114.08,-300.74 1111,-297.66 1111,-294.57 1111,-294.57 1111,-288.41 1111,-288.41 1111,-285.32 1114.08,-282.24 1117.17,-282.24 1117.17,-282.24 1174.08,-282.24 1174.08,-282.24 1177.17,-282.24 1180.25,-285.32 1180.25,-288.41 1180.25,-288.41 1180.25,-294.57 1180.25,-294.57 1180.25,-297.66 1177.17,-300.74 1174.08,-300.74"/>
<text text-anchor="start" x="1119" y="-288.19" font-family="Helvetica,sans-Serif" font-size="9.00">Container.tsx</text>
</a>
</g>
</g>
<!-- ../../packages/ui/src/layout/HeaderLayout/HeaderLayout.tsx&#45;&gt;../../packages/ui/src/shared/Container/Container.tsx -->
<g id="edge16" class="edge">
<title>../../packages/ui/src/layout/HeaderLayout/HeaderLayout.tsx&#45;&gt;../../packages/ui/src/shared/Container/Container.tsx</title>
<path fill="none" stroke="#000000" stroke-width="2" stroke-opacity="0.200000" d="M979.62,-205.22C1012.42,-222.37 1080.6,-258.02 1118.24,-277.7"/>
<polygon fill="#000000" fill-opacity="0.200000" stroke="#000000" stroke-width="2" stroke-opacity="0.200000" points="1117.26,-279.55 1123.55,-280.47 1119.2,-275.83 1117.26,-279.55"/>
</g>
<!-- ../../packages/ui/src/shared/Container/Container.module.scss -->
<g id="node17" class="node">
<title>../../packages/ui/src/shared/Container/Container.module.scss</title>
<g id="a_node17"><a xlink:href="../../packages/ui/src/shared/Container/Container.module.scss" xlink:title="Container.module.scss">
<path fill="#ffffcc" stroke="black" d="M1337.58,-300.74C1337.58,-300.74 1240.92,-300.74 1240.92,-300.74 1237.83,-300.74 1234.75,-297.66 1234.75,-294.57 1234.75,-294.57 1234.75,-288.41 1234.75,-288.41 1234.75,-285.32 1237.83,-282.24 1240.92,-282.24 1240.92,-282.24 1337.58,-282.24 1337.58,-282.24 1340.67,-282.24 1343.75,-285.32 1343.75,-288.41 1343.75,-288.41 1343.75,-294.57 1343.75,-294.57 1343.75,-297.66 1340.67,-300.74 1337.58,-300.74"/>
<text text-anchor="start" x="1242.75" y="-288.19" font-family="Helvetica,sans-Serif" font-size="9.00">Container.module.scss</text>
</a>
</g>
</g>
<!-- ../../packages/ui/src/shared/Container/Container.tsx&#45;&gt;../../packages/ui/src/shared/Container/Container.module.scss -->
<g id="edge21" class="edge">
<title>../../packages/ui/src/shared/Container/Container.tsx&#45;&gt;../../packages/ui/src/shared/Container/Container.module.scss</title>
<path fill="none" stroke="#000000" stroke-width="2" stroke-opacity="0.200000" d="M1180.55,-291.49C1194.02,-291.49 1209.97,-291.49 1225.41,-291.49"/>
<polygon fill="#000000" fill-opacity="0.200000" stroke="#000000" stroke-width="2" stroke-opacity="0.200000" points="1225.39,-293.59 1231.39,-291.49 1225.39,-289.39 1225.39,-293.59"/>
</g>
<!-- ../../packages/ui/src/layout/MainLayout/MainLayout.module.scss -->
<g id="node15" class="node">
<title>../../packages/ui/src/layout/MainLayout/MainLayout.module.scss</title>
<g id="a_node15"><a xlink:href="../../packages/ui/src/layout/MainLayout/MainLayout.module.scss" xlink:title="MainLayout.module.scss">
<path fill="#ffffcc" stroke="black" d="M1198.08,-143.74C1198.08,-143.74 1093.17,-143.74 1093.17,-143.74 1090.08,-143.74 1087,-140.66 1087,-137.57 1087,-137.57 1087,-131.41 1087,-131.41 1087,-128.32 1090.08,-125.24 1093.17,-125.24 1093.17,-125.24 1198.08,-125.24 1198.08,-125.24 1201.17,-125.24 1204.25,-128.32 1204.25,-131.41 1204.25,-131.41 1204.25,-137.57 1204.25,-137.57 1204.25,-140.66 1201.17,-143.74 1198.08,-143.74"/>
<text text-anchor="start" x="1095" y="-131.19" font-family="Helvetica,sans-Serif" font-size="9.00">MainLayout.module.scss</text>
</a>
</g>
</g>
<!-- ../../packages/ui/src/layout/MainLayout/MainLayout.tsx -->
<g id="node16" class="node">
<title>../../packages/ui/src/layout/MainLayout/MainLayout.tsx</title>
<g id="a_node16"><a xlink:href="../../packages/ui/src/layout/MainLayout/MainLayout.tsx" xlink:title="MainLayout.tsx">
<path fill="#bbfeff" stroke="black" d="M992.58,-143.74C992.58,-143.74 927.42,-143.74 927.42,-143.74 924.33,-143.74 921.25,-140.66 921.25,-137.57 921.25,-137.57 921.25,-131.41 921.25,-131.41 921.25,-128.32 924.33,-125.24 927.42,-125.24 927.42,-125.24 992.58,-125.24 992.58,-125.24 995.67,-125.24 998.75,-128.32 998.75,-131.41 998.75,-131.41 998.75,-137.57 998.75,-137.57 998.75,-140.66 995.67,-143.74 992.58,-143.74"/>
<text text-anchor="start" x="929.25" y="-131.19" font-family="Helvetica,sans-Serif" font-size="9.00">MainLayout.tsx</text>
</a>
</g>
</g>
<!-- ../../packages/ui/src/layout/MainLayout/MainLayout.tsx&#45;&gt;../../packages/model/src/lib/classNames/classNames.ts -->
<g id="edge20" class="edge">
<title>../../packages/ui/src/layout/MainLayout/MainLayout.tsx&#45;&gt;../../packages/model/src/lib/classNames/classNames.ts</title>
<path fill="none" stroke="#000000" stroke-width="2" stroke-opacity="0.200000" d="M998.85,-139.89C1020.53,-145.12 1046.06,-155.39 1059.75,-175.49 1073.45,-195.61 1053.84,-593.52 1067.75,-613.49 1075.2,-624.19 1087.07,-631.07 1099.27,-635.5"/>
<polygon fill="#000000" fill-opacity="0.200000" stroke="#000000" stroke-width="2" stroke-opacity="0.200000" points="1098.49,-637.45 1104.84,-637.27 1099.76,-633.45 1098.49,-637.45"/>
</g>
<!-- ../../packages/ui/src/layout/MainLayout/MainLayout.tsx&#45;&gt;../../packages/ui/src/layout/MainLayout/MainLayout.module.scss -->
<g id="edge19" class="edge">
<title>../../packages/ui/src/layout/MainLayout/MainLayout.tsx&#45;&gt;../../packages/ui/src/layout/MainLayout/MainLayout.module.scss</title>
<path fill="none" stroke="#000000" stroke-width="2" stroke-opacity="0.200000" d="M999.05,-134.49C1021.79,-134.49 1051.34,-134.49 1077.86,-134.49"/>
<polygon fill="#000000" fill-opacity="0.200000" stroke="#000000" stroke-width="2" stroke-opacity="0.200000" points="1077.7,-136.59 1083.7,-134.49 1077.7,-132.39 1077.7,-136.59"/>
</g>
<!-- ../../packages/ui/src/shared/Page/Page.module.scss -->
<g id="node18" class="node">
<title>../../packages/ui/src/shared/Page/Page.module.scss</title>
<g id="a_node18"><a xlink:href="../../packages/ui/src/shared/Page/Page.module.scss" xlink:title="Page.module.scss">
<path fill="#ffffcc" stroke="black" d="M1184.96,-361.74C1184.96,-361.74 1106.29,-361.74 1106.29,-361.74 1103.21,-361.74 1100.12,-358.66 1100.12,-355.57 1100.12,-355.57 1100.12,-349.41 1100.12,-349.41 1100.12,-346.32 1103.21,-343.24 1106.29,-343.24 1106.29,-343.24 1184.96,-343.24 1184.96,-343.24 1188.04,-343.24 1191.12,-346.32 1191.12,-349.41 1191.12,-349.41 1191.12,-355.57 1191.12,-355.57 1191.12,-358.66 1188.04,-361.74 1184.96,-361.74"/>
<text text-anchor="start" x="1108.12" y="-349.19" font-family="Helvetica,sans-Serif" font-size="9.00">Page.module.scss</text>
</a>
</g>
</g>
<!-- ../../packages/ui/src/shared/Page/Page.tsx -->
<g id="node19" class="node">
<title>../../packages/ui/src/shared/Page/Page.tsx</title>
<g id="a_node19"><a xlink:href="../../packages/ui/src/shared/Page/Page.tsx" xlink:title="Page.tsx">
<path fill="#bbfeff" stroke="black" d="M980.83,-361.74C980.83,-361.74 939.17,-361.74 939.17,-361.74 936.08,-361.74 933,-358.66 933,-355.57 933,-355.57 933,-349.41 933,-349.41 933,-346.32 936.08,-343.24 939.17,-343.24 939.17,-343.24 980.83,-343.24 980.83,-343.24 983.92,-343.24 987,-346.32 987,-349.41 987,-349.41 987,-355.57 987,-355.57 987,-358.66 983.92,-361.74 980.83,-361.74"/>
<text text-anchor="start" x="942.38" y="-349.19" font-family="Helvetica,sans-Serif" font-size="9.00">Page.tsx</text>
</a>
</g>
</g>
<!-- ../../packages/ui/src/shared/Page/Page.tsx&#45;&gt;../../packages/model/src/lib/classNames/classNames.ts -->
<g id="edge24" class="edge">
<title>../../packages/ui/src/shared/Page/Page.tsx&#45;&gt;../../packages/model/src/lib/classNames/classNames.ts</title>
<path fill="none" stroke="#000000" stroke-width="2" stroke-opacity="0.200000" d="M962.18,-362.04C967.32,-399.49 990.98,-537.95 1067.75,-613.49 1076.46,-622.06 1087.9,-628.25 1099.29,-632.7"/>
<polygon fill="#000000" fill-opacity="0.200000" stroke="#000000" stroke-width="2" stroke-opacity="0.200000" points="1098.32,-634.58 1104.67,-634.62 1099.73,-630.62 1098.32,-634.58"/>
</g>
<!-- ../../packages/ui/src/shared/Page/Page.tsx&#45;&gt;../../packages/ui/src/shared/Container/Container.tsx -->
<g id="edge22" class="edge">
<title>../../packages/ui/src/shared/Page/Page.tsx&#45;&gt;../../packages/ui/src/shared/Container/Container.tsx</title>
<path fill="none" stroke="#000000" stroke-width="2" stroke-opacity="0.200000" d="M987.31,-343.75C1018.71,-333.32 1071.43,-315.81 1107.1,-303.96"/>
<polygon fill="#000000" fill-opacity="0.200000" stroke="#000000" stroke-width="2" stroke-opacity="0.200000" points="1107.42,-306.06 1112.46,-302.18 1106.1,-302.08 1107.42,-306.06"/>
</g>
<!-- ../../packages/ui/src/shared/Page/Page.tsx&#45;&gt;../../packages/ui/src/shared/Page/Page.module.scss -->
<g id="edge23" class="edge">
<title>../../packages/ui/src/shared/Page/Page.tsx&#45;&gt;../../packages/ui/src/shared/Page/Page.module.scss</title>
<path fill="none" stroke="#000000" stroke-width="2" stroke-opacity="0.200000" d="M987.31,-352.49C1014.25,-352.49 1056.91,-352.49 1091.01,-352.49"/>
<polygon fill="#000000" fill-opacity="0.200000" stroke="#000000" stroke-width="2" stroke-opacity="0.200000" points="1090.9,-354.59 1096.9,-352.49 1090.9,-350.39 1090.9,-354.59"/>
</g>
<!-- ../../packages/ui/src/styles/index.scss -->
<g id="node20" class="node">
<title>../../packages/ui/src/styles/index.scss</title>
<g id="a_node20"><a xlink:href="../../packages/ui/src/styles/index.scss" xlink:title="index.scss">
<path fill="#ffffcc" stroke="black" d="M983.21,-74.74C983.21,-74.74 936.79,-74.74 936.79,-74.74 933.71,-74.74 930.62,-71.66 930.62,-68.57 930.62,-68.57 930.62,-62.41 930.62,-62.41 930.62,-59.32 933.71,-56.24 936.79,-56.24 936.79,-56.24 983.21,-56.24 983.21,-56.24 986.29,-56.24 989.38,-59.32 989.38,-62.41 989.38,-62.41 989.38,-68.57 989.38,-68.57 989.38,-71.66 986.29,-74.74 983.21,-74.74"/>
<text text-anchor="start" x="938.62" y="-62.19" font-family="Helvetica,sans-Serif" font-size="9.00">index.scss</text>
</a>
</g>
</g>
<!-- src/app/App.tsx -->
<g id="node21" class="node">
<title>src/app/App.tsx</title>
<g id="a_node21"><a xlink:href="src/app/App.tsx" xlink:title="App.tsx">
<path fill="#bbfeff" stroke="black" d="M226.83,-1124.74C226.83,-1124.74 185.17,-1124.74 185.17,-1124.74 182.08,-1124.74 179,-1121.66 179,-1118.57 179,-1118.57 179,-1112.41 179,-1112.41 179,-1109.32 182.08,-1106.24 185.17,-1106.24 185.17,-1106.24 226.83,-1106.24 226.83,-1106.24 229.92,-1106.24 233,-1109.32 233,-1112.41 233,-1112.41 233,-1118.57 233,-1118.57 233,-1121.66 229.92,-1124.74 226.83,-1124.74"/>
<text text-anchor="start" x="191" y="-1112.19" font-family="Helvetica,sans-Serif" font-size="9.00">App.tsx</text>
</a>
</g>
</g>
<!-- src/app/App.tsx&#45;&gt;../../packages/ui/src/layout/MainLayout/MainLayout.tsx -->
<g id="edge26" class="edge">
<title>src/app/App.tsx&#45;&gt;../../packages/ui/src/layout/MainLayout/MainLayout.tsx</title>
<path fill="none" stroke="#000000" stroke-width="2" stroke-opacity="0.200000" d="M233.26,-1110.12C237.82,-1108.09 242.11,-1105.32 245.25,-1101.49 252.53,-1092.63 251.28,-1061.79 253.25,-1050.49 288.15,-850.1 222.09,-151.49 425.5,-151.49 425.5,-151.49 425.5,-151.49 705.75,-151.49 777.87,-151.49 861.29,-144.54 912.08,-139.53"/>
<polygon fill="#000000" fill-opacity="0.200000" stroke="#000000" stroke-width="2" stroke-opacity="0.200000" points="912.1,-141.64 917.86,-138.95 911.68,-137.46 912.1,-141.64"/>
</g>
<!-- src/app/providers/router/index.ts -->
<g id="node22" class="node">
<title>src/app/providers/router/index.ts</title>
<g id="a_node22"><a xlink:href="src/app/providers/router/index.ts" xlink:title="index.ts">
<path fill="#ddfeff" stroke="black" d="M350.46,-1097.74C350.46,-1097.74 308.79,-1097.74 308.79,-1097.74 305.71,-1097.74 302.62,-1094.66 302.62,-1091.57 302.62,-1091.57 302.62,-1085.41 302.62,-1085.41 302.62,-1082.32 305.71,-1079.24 308.79,-1079.24 308.79,-1079.24 350.46,-1079.24 350.46,-1079.24 353.54,-1079.24 356.62,-1082.32 356.62,-1085.41 356.62,-1085.41 356.62,-1091.57 356.62,-1091.57 356.62,-1094.66 353.54,-1097.74 350.46,-1097.74"/>
<text text-anchor="start" x="313.88" y="-1085.19" font-family="Helvetica,sans-Serif" font-size="9.00">index.ts</text>
</a>
</g>
</g>
<!-- src/app/App.tsx&#45;&gt;src/app/providers/router/index.ts -->
<g id="edge25" class="edge">
<title>src/app/App.tsx&#45;&gt;src/app/providers/router/index.ts</title>
<path fill="none" stroke="#000000" stroke-width="2" stroke-opacity="0.200000" d="M233.39,-1109.63C251,-1105.72 274.36,-1100.54 293.53,-1096.28"/>
<polygon fill="#000000" fill-opacity="0.200000" stroke="#000000" stroke-width="2" stroke-opacity="0.200000" points="293.93,-1098.34 299.33,-1094.99 293.02,-1094.24 293.93,-1098.34"/>
</g>
<!-- src/widgets/Header/index.ts -->
<g id="node23" class="node">
<title>src/widgets/Header/index.ts</title>
<g id="a_node23"><a xlink:href="src/widgets/Header/index.ts" xlink:title="index.ts">
<path fill="#ddfeff" stroke="black" d="M350.46,-1343.74C350.46,-1343.74 308.79,-1343.74 308.79,-1343.74 305.71,-1343.74 302.62,-1340.66 302.62,-1337.57 302.62,-1337.57 302.62,-1331.41 302.62,-1331.41 302.62,-1328.32 305.71,-1325.24 308.79,-1325.24 308.79,-1325.24 350.46,-1325.24 350.46,-1325.24 353.54,-1325.24 356.62,-1328.32 356.62,-1331.41 356.62,-1331.41 356.62,-1337.57 356.62,-1337.57 356.62,-1340.66 353.54,-1343.74 350.46,-1343.74"/>
<text text-anchor="start" x="313.88" y="-1331.19" font-family="Helvetica,sans-Serif" font-size="9.00">index.ts</text>
</a>
</g>
</g>
<!-- src/app/App.tsx&#45;&gt;src/widgets/Header/index.ts -->
<g id="edge27" class="edge">
<title>src/app/App.tsx&#45;&gt;src/widgets/Header/index.ts</title>
<path fill="none" stroke="#000000" stroke-width="2" stroke-opacity="0.200000" d="M206.94,-1125.14C207.25,-1153.91 211.76,-1240.41 253.25,-1293.49 263.7,-1306.86 279.77,-1316.45 294.4,-1322.97"/>
<polygon fill="#000000" fill-opacity="0.200000" stroke="#000000" stroke-width="2" stroke-opacity="0.200000" points="293.19,-1324.75 299.53,-1325.12 294.81,-1320.87 293.19,-1324.75"/>
</g>
<!-- src/app/providers/router/model/routerConfig.tsx -->
<g id="node24" class="node">
<title>src/app/providers/router/model/routerConfig.tsx</title>
<g id="a_node24"><a xlink:href="src/app/providers/router/model/routerConfig.tsx" xlink:title="routerConfig.tsx">
<path fill="#bbfeff" stroke="black" d="M562.71,-1097.74C562.71,-1097.74 494.54,-1097.74 494.54,-1097.74 491.46,-1097.74 488.38,-1094.66 488.38,-1091.57 488.38,-1091.57 488.38,-1085.41 488.38,-1085.41 488.38,-1082.32 491.46,-1079.24 494.54,-1079.24 494.54,-1079.24 562.71,-1079.24 562.71,-1079.24 565.79,-1079.24 568.88,-1082.32 568.88,-1085.41 568.88,-1085.41 568.88,-1091.57 568.88,-1091.57 568.88,-1094.66 565.79,-1097.74 562.71,-1097.74"/>
<text text-anchor="start" x="496.38" y="-1085.19" font-family="Helvetica,sans-Serif" font-size="9.00">routerConfig.tsx</text>
</a>
</g>
</g>
<!-- src/app/providers/router/index.ts&#45;&gt;src/app/providers/router/model/routerConfig.tsx -->
<g id="edge28" class="edge">
<title>src/app/providers/router/index.ts&#45;&gt;src/app/providers/router/model/routerConfig.tsx</title>
<path fill="none" stroke="#000000" stroke-width="2" stroke-opacity="0.200000" d="M350.12,-1078.93C359.52,-1074.84 371.09,-1070.54 382,-1068.49 420.88,-1061.19 432.01,-1061.81 471,-1068.49 480.42,-1070.1 490.35,-1073.13 499.22,-1076.34"/>
<polygon fill="#000000" fill-opacity="0.200000" stroke="#000000" stroke-width="2" stroke-opacity="0.200000" points="504.09,-1080.43 499.22,-1076.34 505.58,-1076.5 504.09,-1080.43"/>
</g>
<!-- src/app/providers/router/ui/AppRouter.tsx -->
<g id="node25" class="node">
<title>src/app/providers/router/ui/AppRouter.tsx</title>
<g id="a_node25"><a xlink:href="src/app/providers/router/ui/AppRouter.tsx" xlink:title="AppRouter.tsx">
<path fill="#bbfeff" stroke="black" d="M456.83,-1097.74C456.83,-1097.74 396.17,-1097.74 396.17,-1097.74 393.08,-1097.74 390,-1094.66 390,-1091.57 390,-1091.57 390,-1085.41 390,-1085.41 390,-1082.32 393.08,-1079.24 396.17,-1079.24 396.17,-1079.24 456.83,-1079.24 456.83,-1079.24 459.92,-1079.24 463,-1082.32 463,-1085.41 463,-1085.41 463,-1091.57 463,-1091.57 463,-1094.66 459.92,-1097.74 456.83,-1097.74"/>
<text text-anchor="start" x="398" y="-1085.19" font-family="Helvetica,sans-Serif" font-size="9.00">AppRouter.tsx</text>
</a>
</g>
</g>
<!-- src/app/providers/router/index.ts&#45;&gt;src/app/providers/router/ui/AppRouter.tsx -->
<g id="edge29" class="edge">
<title>src/app/providers/router/index.ts&#45;&gt;src/app/providers/router/ui/AppRouter.tsx</title>
<path fill="none" stroke="#000000" stroke-width="2" stroke-opacity="0.200000" d="M357.05,-1088.49C365.01,-1088.49 373.96,-1088.49 382.7,-1088.49"/>
<polygon fill="#000000" fill-opacity="0.200000" stroke="#000000" stroke-width="2" stroke-opacity="0.200000" points="388.64,-1090.59 382.64,-1088.49 388.64,-1086.39 388.64,-1090.59"/>
</g>
<!-- src/widgets/Header/ui/Header/Header.tsx -->
<g id="node38" class="node">
<title>src/widgets/Header/ui/Header/Header.tsx</title>
<g id="a_node38"><a xlink:href="src/widgets/Header/ui/Header/Header.tsx" xlink:title="Header.tsx">
<path fill="#bbfeff" stroke="black" d="M450.08,-1263.74C450.08,-1263.74 402.92,-1263.74 402.92,-1263.74 399.83,-1263.74 396.75,-1260.66 396.75,-1257.57 396.75,-1257.57 396.75,-1251.41 396.75,-1251.41 396.75,-1248.32 399.83,-1245.24 402.92,-1245.24 402.92,-1245.24 450.08,-1245.24 450.08,-1245.24 453.17,-1245.24 456.25,-1248.32 456.25,-1251.41 456.25,-1251.41 456.25,-1257.57 456.25,-1257.57 456.25,-1260.66 453.17,-1263.74 450.08,-1263.74"/>
<text text-anchor="start" x="404.75" y="-1251.19" font-family="Helvetica,sans-Serif" font-size="9.00">Header.tsx</text>
</a>
</g>
</g>
<!-- src/widgets/Header/index.ts&#45;&gt;src/widgets/Header/ui/Header/Header.tsx -->
<g id="edge50" class="edge">
<title>src/widgets/Header/index.ts&#45;&gt;src/widgets/Header/ui/Header/Header.tsx</title>
<path fill="none" stroke="#000000" stroke-width="2" stroke-opacity="0.200000" d="M341.88,-1325C358.48,-1311 389.64,-1284.73 408.87,-1268.51"/>
<polygon fill="#000000" fill-opacity="0.200000" stroke="#000000" stroke-width="2" stroke-opacity="0.200000" points="414.55,-1266.47 408.61,-1268.73 411.84,-1263.26 414.55,-1266.47"/>
</g>
<!-- src/app/providers/router/model/routerConfig.tsx&#45;&gt;../../packages/model/src/config/router/const/mangasite.ts -->
<g id="edge30" class="edge">
<title>src/app/providers/router/model/routerConfig.tsx&#45;&gt;../../packages/model/src/config/router/const/mangasite.ts</title>
<path fill="none" stroke="#000000" stroke-width="2" stroke-opacity="0.200000" d="M537.02,-1098.05C553.82,-1120.4 594.6,-1178.43 610.25,-1234.49 616.26,-1256.02 604.43,-1417.92 618.25,-1435.49 673.35,-1505.56 721.99,-1490.49 811.12,-1490.49 811.12,-1490.49 811.12,-1490.49 1448.88,-1490.49 1595.88,-1490.49 1635.81,-914.3 1642.15,-802.98"/>
<polygon fill="#000000" fill-opacity="0.200000" stroke="#000000" stroke-width="2" stroke-opacity="0.200000" points="1644.24,-803.33 1642.47,-797.22 1640.04,-803.1 1644.24,-803.33"/>
</g>
<!-- src/app/providers/router/model/routerConfig.tsx&#45;&gt;../../packages/model/src/config/router/mangaSiteRouter.ts -->
<g id="edge31" class="edge">
<title>src/app/providers/router/model/routerConfig.tsx&#45;&gt;../../packages/model/src/config/router/mangaSiteRouter.ts</title>
<path fill="none" stroke="#000000" stroke-width="2" stroke-opacity="0.200000" d="M536.96,-1098.07C553.61,-1120.46 594.11,-1178.57 610.25,-1234.49 614.54,-1249.35 608.11,-1361.8 618.25,-1373.49 675.55,-1439.56 723.67,-1412.49 811.12,-1412.49 811.12,-1412.49 811.12,-1412.49 1146.62,-1412.49 1424.39,-1412.49 1445.41,-906.25 1446.81,-802.82"/>
<polygon fill="#000000" fill-opacity="0.200000" stroke="#000000" stroke-width="2" stroke-opacity="0.200000" points="1448.91,-802.9 1446.87,-796.88 1444.71,-802.86 1448.91,-802.9"/>
</g>
<!-- src/app/providers/router/model/routerConfig.tsx&#45;&gt;../../packages/model/src/config/router/types/router.ts -->
<g id="edge32" class="edge">
<title>src/app/providers/router/model/routerConfig.tsx&#45;&gt;../../packages/model/src/config/router/types/router.ts</title>
<path fill="none" stroke="#000000" stroke-opacity="0.200000" d="M537,-1098.06C553.74,-1120.42 594.41,-1178.49 610.25,-1234.49 615.43,-1252.79 605.65,-1391.24 618.25,-1405.49 675.86,-1470.64 724.16,-1438.49 811.12,-1438.49 811.12,-1438.49 811.12,-1438.49 1290.25,-1438.49 1430.78,-1438.49 1519.73,-903.77 1535.48,-801.34"/>
<polygon fill="none" stroke="#000000" stroke-opacity="0.200000" points="1537.55,-801.73 1536.38,-795.48 1533.4,-801.1 1537.55,-801.73"/>
</g>
<!-- src/pages/MainPage/index.ts -->
<g id="node26" class="node">
<title>src/pages/MainPage/index.ts</title>
<g id="a_node26"><a xlink:href="src/pages/MainPage/index.ts" xlink:title="index.ts">
<path fill="#ddfeff" stroke="black" d="M725.58,-1186.74C725.58,-1186.74 683.92,-1186.74 683.92,-1186.74 680.83,-1186.74 677.75,-1183.66 677.75,-1180.57 677.75,-1180.57 677.75,-1174.41 677.75,-1174.41 677.75,-1171.32 680.83,-1168.24 683.92,-1168.24 683.92,-1168.24 725.58,-1168.24 725.58,-1168.24 728.67,-1168.24 731.75,-1171.32 731.75,-1174.41 731.75,-1174.41 731.75,-1180.57 731.75,-1180.57 731.75,-1183.66 728.67,-1186.74 725.58,-1186.74"/>
<text text-anchor="start" x="689" y="-1174.19" font-family="Helvetica,sans-Serif" font-size="9.00">index.ts</text>
</a>
</g>
</g>
<!-- src/app/providers/router/model/routerConfig.tsx&#45;&gt;src/pages/MainPage/index.ts -->
<g id="edge33" class="edge">
<title>src/app/providers/router/model/routerConfig.tsx&#45;&gt;src/pages/MainPage/index.ts</title>
<path fill="none" stroke="#000000" stroke-width="2" stroke-opacity="0.200000" d="M546.81,-1098.13C564.57,-1108 593.16,-1123.69 618.25,-1136.49 637.03,-1146.07 658.41,-1156.32 675.1,-1164.18"/>
<polygon fill="#000000" fill-opacity="0.200000" stroke="#000000" stroke-width="2" stroke-opacity="0.200000" points="673.81,-1165.9 680.14,-1166.55 675.6,-1162.1 673.81,-1165.9"/>
</g>
<!-- src/pages/MangaPage/index.ts -->
<g id="node27" class="node">
<title>src/pages/MangaPage/index.ts</title>
<g id="a_node27"><a xlink:href="src/pages/MangaPage/index.ts" xlink:title="index.ts">
<path fill="#ddfeff" stroke="black" d="M725.58,-1343.74C725.58,-1343.74 683.92,-1343.74 683.92,-1343.74 680.83,-1343.74 677.75,-1340.66 677.75,-1337.57 677.75,-1337.57 677.75,-1331.41 677.75,-1331.41 677.75,-1328.32 680.83,-1325.24 683.92,-1325.24 683.92,-1325.24 725.58,-1325.24 725.58,-1325.24 728.67,-1325.24 731.75,-1328.32 731.75,-1331.41 731.75,-1331.41 731.75,-1337.57 731.75,-1337.57 731.75,-1340.66 728.67,-1343.74 725.58,-1343.74"/>
<text text-anchor="start" x="689" y="-1331.19" font-family="Helvetica,sans-Serif" font-size="9.00">index.ts</text>
</a>
</g>
</g>
<!-- src/app/providers/router/model/routerConfig.tsx&#45;&gt;src/pages/MangaPage/index.ts -->
<g id="edge34" class="edge">
<title>src/app/providers/router/model/routerConfig.tsx&#45;&gt;src/pages/MangaPage/index.ts</title>
<path fill="none" stroke="#000000" stroke-width="2" stroke-opacity="0.200000" d="M536.66,-1098.16C552.69,-1120.74 591.96,-1179.24 610.25,-1234.49 618.57,-1259.61 602.68,-1272.1 618.25,-1293.49 630.32,-1310.08 650.9,-1320.23 668.84,-1326.28"/>
<polygon fill="#000000" fill-opacity="0.200000" stroke="#000000" stroke-width="2" stroke-opacity="0.200000" points="668.15,-1328.27 674.5,-1328.04 669.39,-1324.25 668.15,-1328.27"/>
</g>
<!-- src/app/providers/router/ui/AppRouter.tsx&#45;&gt;src/app/providers/router/model/routerConfig.tsx -->
<g id="edge35" class="edge">
<title>src/app/providers/router/ui/AppRouter.tsx&#45;&gt;src/app/providers/router/model/routerConfig.tsx</title>
<path fill="none" stroke="#000000" stroke-width="2" stroke-opacity="0.200000" d="M463.36,-1088.49C468.47,-1088.49 473.79,-1088.49 479.08,-1088.49"/>
<polygon fill="#000000" fill-opacity="0.200000" stroke="#000000" stroke-width="2" stroke-opacity="0.200000" points="478.91,-1090.59 484.91,-1088.49 478.91,-1086.39 478.91,-1090.59"/>
</g>
<!-- src/pages/MainPage/ui/MainPage/MainPage.tsx -->
<g id="node31" class="node">
<title>src/pages/MainPage/ui/MainPage/MainPage.tsx</title>
<g id="a_node31"><a xlink:href="src/pages/MainPage/ui/MainPage/MainPage.tsx" xlink:title="MainPage.tsx">
<path fill="#bbfeff" stroke="black" d="M841.71,-1075.74C841.71,-1075.74 782.54,-1075.74 782.54,-1075.74 779.46,-1075.74 776.38,-1072.66 776.38,-1069.57 776.38,-1069.57 776.38,-1063.41 776.38,-1063.41 776.38,-1060.32 779.46,-1057.24 782.54,-1057.24 782.54,-1057.24 841.71,-1057.24 841.71,-1057.24 844.79,-1057.24 847.88,-1060.32 847.88,-1063.41 847.88,-1063.41 847.88,-1069.57 847.88,-1069.57 847.88,-1072.66 844.79,-1075.74 841.71,-1075.74"/>
<text text-anchor="start" x="784.38" y="-1063.19" font-family="Helvetica,sans-Serif" font-size="9.00">MainPage.tsx</text>
</a>
</g>
</g>
<!-- src/pages/MainPage/index.ts&#45;&gt;src/pages/MainPage/ui/MainPage/MainPage.tsx -->
<g id="edge40" class="edge">
<title>src/pages/MainPage/index.ts&#45;&gt;src/pages/MainPage/ui/MainPage/MainPage.tsx</title>
<path fill="none" stroke="#000000" stroke-width="2" stroke-opacity="0.200000" d="M720.26,-1168.03C731.55,-1160.29 747.27,-1148.67 759.25,-1136.49 775.96,-1119.51 791.74,-1096.93 801.42,-1082.06"/>
<polygon fill="#000000" fill-opacity="0.200000" stroke="#000000" stroke-width="2" stroke-opacity="0.200000" points="806.4,-1078.18 801.39,-1082.1 802.87,-1075.91 806.4,-1078.18"/>
</g>
<!-- src/pages/MangaPage/ui/MangaPage/MangaPage.tsx -->
<g id="node35" class="node">
<title>src/pages/MangaPage/ui/MangaPage/MangaPage.tsx</title>
<g id="a_node35"><a xlink:href="src/pages/MangaPage/ui/MangaPage/MangaPage.tsx" xlink:title="MangaPage.tsx">
<path fill="#bbfeff" stroke="black" d="M845.83,-1263.74C845.83,-1263.74 778.42,-1263.74 778.42,-1263.74 775.33,-1263.74 772.25,-1260.66 772.25,-1257.57 772.25,-1257.57 772.25,-1251.41 772.25,-1251.41 772.25,-1248.32 775.33,-1245.24 778.42,-1245.24 778.42,-1245.24 845.83,-1245.24 845.83,-1245.24 848.92,-1245.24 852,-1248.32 852,-1251.41 852,-1251.41 852,-1257.57 852,-1257.57 852,-1260.66 848.92,-1263.74 845.83,-1263.74"/>
<text text-anchor="start" x="780.25" y="-1251.19" font-family="Helvetica,sans-Serif" font-size="9.00">MangaPage.tsx</text>
</a>
</g>
</g>
<!-- src/pages/MangaPage/index.ts&#45;&gt;src/pages/MangaPage/ui/MangaPage/MangaPage.tsx -->
<g id="edge45" class="edge">
<title>src/pages/MangaPage/index.ts&#45;&gt;src/pages/MangaPage/ui/MangaPage/MangaPage.tsx</title>
<path fill="none" stroke="#000000" stroke-width="2" stroke-opacity="0.200000" d="M718.25,-1325C736.69,-1311 771.29,-1284.73 792.66,-1268.51"/>
<polygon fill="#000000" fill-opacity="0.200000" stroke="#000000" stroke-width="2" stroke-opacity="0.200000" points="798.78,-1266.5 792.74,-1268.45 796.24,-1263.15 798.78,-1266.5"/>
</g>
<!-- src/app/types/globals.d.ts -->
<g id="node28" class="node">
<title>src/app/types/globals.d.ts</title>
<g id="a_node28"><a xlink:href="src/app/types/globals.d.ts" xlink:title="globals.d.ts">
<path fill="#ccffcc" stroke="black" d="M231.08,-1071.74C231.08,-1071.74 180.92,-1071.74 180.92,-1071.74 177.83,-1071.74 174.75,-1068.66 174.75,-1065.57 174.75,-1065.57 174.75,-1059.41 174.75,-1059.41 174.75,-1056.32 177.83,-1053.24 180.92,-1053.24 180.92,-1053.24 231.08,-1053.24 231.08,-1053.24 234.17,-1053.24 237.25,-1056.32 237.25,-1059.41 237.25,-1059.41 237.25,-1065.57 237.25,-1065.57 237.25,-1068.66 234.17,-1071.74 231.08,-1071.74"/>
<text text-anchor="start" x="182.75" y="-1059.19" font-family="Helvetica,sans-Serif" font-size="9.00">globals.d.ts</text>
</a>
</g>
</g>
<!-- src/bootstrap.tsx -->
<g id="node29" class="node">
<title>src/bootstrap.tsx</title>
<g id="a_node29"><a xlink:href="src/bootstrap.tsx" xlink:title="bootstrap.tsx">
<path fill="#bbfeff" stroke="black" d="M144.58,-1043.74C144.58,-1043.74 89.17,-1043.74 89.17,-1043.74 86.08,-1043.74 83,-1040.66 83,-1037.57 83,-1037.57 83,-1031.41 83,-1031.41 83,-1028.32 86.08,-1025.24 89.17,-1025.24 89.17,-1025.24 144.58,-1025.24 144.58,-1025.24 147.67,-1025.24 150.75,-1028.32 150.75,-1031.41 150.75,-1031.41 150.75,-1037.57 150.75,-1037.57 150.75,-1040.66 147.67,-1043.74 144.58,-1043.74"/>
<text text-anchor="start" x="91" y="-1031.19" font-family="Helvetica,sans-Serif" font-size="9.00">bootstrap.tsx</text>
</a>
</g>
</g>
<!-- src/bootstrap.tsx&#45;&gt;../../packages/model/src/lib/theme/ThemeProvider.tsx -->
<g id="edge37" class="edge">
<title>src/bootstrap.tsx&#45;&gt;../../packages/model/src/lib/theme/ThemeProvider.tsx</title>
<path fill="none" stroke="#000000" stroke-width="2" stroke-opacity="0.200000" d="M117.83,-1024.94C117.49,-934.5 116.18,-230.27 158.75,-148.49 202.78,-63.92 233.28,-17.49 328.62,-17.49 328.62,-17.49 328.62,-17.49 813.12,-17.49 923.44,-17.49 985.33,35.94 1059.75,-45.49 1072.72,-59.68 1062.46,-373 1067.75,-391.49 1080.57,-436.3 1112.65,-481.56 1131.06,-505.04"/>
<polygon fill="#000000" fill-opacity="0.200000" stroke="#000000" stroke-width="2" stroke-opacity="0.200000" points="1129.25,-506.13 1134.63,-509.51 1132.53,-503.51 1129.25,-506.13"/>
</g>
<!-- src/bootstrap.tsx&#45;&gt;../../packages/ui/src/styles/index.scss -->
<g id="edge38" class="edge">
<title>src/bootstrap.tsx&#45;&gt;../../packages/ui/src/styles/index.scss</title>
<path fill="none" stroke="#000000" stroke-width="2" stroke-opacity="0.200000" d="M117.87,-1024.8C118.06,-924.91 125.67,-86.49 328.62,-86.49 328.62,-86.49 328.62,-86.49 705.75,-86.49 782.59,-86.49 872.09,-76.77 921.46,-70.56"/>
<polygon fill="#000000" fill-opacity="0.200000" stroke="#000000" stroke-width="2" stroke-opacity="0.200000" points="921.51,-72.67 927.2,-69.82 920.98,-68.5 921.51,-72.67"/>
</g>
<!-- src/bootstrap.tsx&#45;&gt;src/app/App.tsx -->
<g id="edge36" class="edge">
<title>src/bootstrap.tsx&#45;&gt;src/app/App.tsx</title>
<path fill="none" stroke="#000000" stroke-width="2" stroke-opacity="0.200000" d="M121.05,-1043.77C126.48,-1058.25 138.92,-1086.15 158.75,-1101.49 162.31,-1104.24 166.41,-1106.46 170.66,-1108.24"/>
<polygon fill="#000000" fill-opacity="0.200000" stroke="#000000" stroke-width="2" stroke-opacity="0.200000" points="169.72,-1110.13 176.08,-1110.15 171.12,-1106.17 169.72,-1110.13"/>
</g>
<!-- src/index.tsx -->
<g id="node30" class="node">
<title>src/index.tsx</title>
<g id="a_node30"><a xlink:href="src/index.tsx" xlink:title="index.tsx">
<path fill="#bbfeff" stroke="black" d="M63.83,-1043.74C63.83,-1043.74 22.17,-1043.74 22.17,-1043.74 19.08,-1043.74 16,-1040.66 16,-1037.57 16,-1037.57 16,-1031.41 16,-1031.41 16,-1028.32 19.08,-1025.24 22.17,-1025.24 22.17,-1025.24 63.83,-1025.24 63.83,-1025.24 66.92,-1025.24 70,-1028.32 70,-1031.41 70,-1031.41 70,-1037.57 70,-1037.57 70,-1040.66 66.92,-1043.74 63.83,-1043.74"/>
<text text-anchor="start" x="25" y="-1031.19" font-family="Helvetica,sans-Serif" font-size="9.00">index.tsx</text>
</a>
</g>
</g>
<!-- src/index.tsx&#45;&gt;src/bootstrap.tsx -->
<g id="edge39" class="edge">
<title>src/index.tsx&#45;&gt;src/bootstrap.tsx</title>
<path fill="none" stroke="#000000" stroke-width="2" stroke-dasharray="5,2" stroke-opacity="0.200000" d="M70.36,-1034.49C71.48,-1034.49 72.62,-1034.49 73.77,-1034.49"/>
<polygon fill="#000000" fill-opacity="0.200000" stroke="#000000" stroke-width="2" stroke-opacity="0.200000" points="73.64,-1036.59 79.64,-1034.49 73.64,-1032.39 73.64,-1036.59"/>
</g>
<!-- src/pages/MainPage/ui/MainPage/MainPage.tsx&#45;&gt;../../packages/model/src/lib/classNames/classNames.ts -->
<g id="edge43" class="edge">
<title>src/pages/MainPage/ui/MainPage/MainPage.tsx&#45;&gt;../../packages/model/src/lib/classNames/classNames.ts</title>
<path fill="none" stroke="#000000" stroke-width="2" stroke-opacity="0.200000" d="M824.06,-1056.84C860.73,-1024.07 981.5,-912.98 1059.75,-803.49 1094.2,-755.29 1123.91,-691.38 1137.2,-660.98"/>
<polygon fill="#000000" fill-opacity="0.200000" stroke="#000000" stroke-width="2" stroke-opacity="0.200000" points="1138.99,-662.13 1139.45,-655.79 1135.14,-660.47 1138.99,-662.13"/>
</g>
<!-- src/pages/MainPage/ui/MainPage/MainPage.tsx&#45;&gt;../../packages/ui/src/shared/Page/Page.tsx -->
<g id="edge44" class="edge">
<title>src/pages/MainPage/ui/MainPage/MainPage.tsx&#45;&gt;../../packages/ui/src/shared/Page/Page.tsx</title>
<path fill="none" stroke="#000000" stroke-width="2" stroke-opacity="0.200000" d="M814.97,-1057.04C821.22,-1025.14 842.14,-918.51 860,-830.49 896.46,-650.77 942.02,-433.35 955.24,-370.37"/>
<polygon fill="#000000" fill-opacity="0.200000" stroke="#000000" stroke-width="2" stroke-opacity="0.200000" points="957.22,-371.18 956.4,-364.88 953.11,-370.32 957.22,-371.18"/>
</g>
<!-- src/pages/MainPage/ui/MainPage/MainPage.module.scss -->
<g id="node32" class="node">
<title>src/pages/MainPage/ui/MainPage/MainPage.module.scss</title>
<g id="a_node32"><a xlink:href="src/pages/MainPage/ui/MainPage/MainPage.module.scss" xlink:title="MainPage.module.scss">
<path fill="#ffffcc" stroke="black" d="M1009.46,-1075.74C1009.46,-1075.74 910.54,-1075.74 910.54,-1075.74 907.46,-1075.74 904.38,-1072.66 904.38,-1069.57 904.38,-1069.57 904.38,-1063.41 904.38,-1063.41 904.38,-1060.32 907.46,-1057.24 910.54,-1057.24 910.54,-1057.24 1009.46,-1057.24 1009.46,-1057.24 1012.54,-1057.24 1015.62,-1060.32 1015.62,-1063.41 1015.62,-1063.41 1015.62,-1069.57 1015.62,-1069.57 1015.62,-1072.66 1012.54,-1075.74 1009.46,-1075.74"/>
<text text-anchor="start" x="912.38" y="-1063.19" font-family="Helvetica,sans-Serif" font-size="9.00">MainPage.module.scss</text>
</a>
</g>
</g>
<!-- src/pages/MainPage/ui/MainPage/MainPage.tsx&#45;&gt;src/pages/MainPage/ui/MainPage/MainPage.module.scss -->
<g id="edge42" class="edge">
<title>src/pages/MainPage/ui/MainPage/MainPage.tsx&#45;&gt;src/pages/MainPage/ui/MainPage/MainPage.module.scss</title>
<path fill="none" stroke="#000000" stroke-width="2" stroke-opacity="0.200000" d="M848.07,-1066.49C862.22,-1066.49 879.02,-1066.49 895.21,-1066.49"/>
<polygon fill="#000000" fill-opacity="0.200000" stroke="#000000" stroke-width="2" stroke-opacity="0.200000" points="895.09,-1068.59 901.09,-1066.49 895.09,-1064.39 895.09,-1068.59"/>
</g>
<!-- src/pages/MainPage/ui/MainPage/MainPage.stories.tsx -->
<g id="node33" class="node">
<title>src/pages/MainPage/ui/MainPage/MainPage.stories.tsx</title>
<g id="a_node33"><a xlink:href="src/pages/MainPage/ui/MainPage/MainPage.stories.tsx" xlink:title="MainPage.stories.tsx">
<path fill="#bbfeff" stroke="black" d="M748.96,-1075.74C748.96,-1075.74 660.54,-1075.74 660.54,-1075.74 657.46,-1075.74 654.38,-1072.66 654.38,-1069.57 654.38,-1069.57 654.38,-1063.41 654.38,-1063.41 654.38,-1060.32 657.46,-1057.24 660.54,-1057.24 660.54,-1057.24 748.96,-1057.24 748.96,-1057.24 752.04,-1057.24 755.12,-1060.32 755.12,-1063.41 755.12,-1063.41 755.12,-1069.57 755.12,-1069.57 755.12,-1072.66 752.04,-1075.74 748.96,-1075.74"/>
<text text-anchor="start" x="662.38" y="-1063.19" font-family="Helvetica,sans-Serif" font-size="9.00">MainPage.stories.tsx</text>
</a>
</g>
</g>
<!-- src/pages/MainPage/ui/MainPage/MainPage.stories.tsx&#45;&gt;src/pages/MainPage/ui/MainPage/MainPage.tsx -->
<g id="edge41" class="edge">
<title>src/pages/MainPage/ui/MainPage/MainPage.stories.tsx&#45;&gt;src/pages/MainPage/ui/MainPage/MainPage.tsx</title>
<path fill="none" stroke="#000000" stroke-width="2" stroke-opacity="0.200000" d="M755.35,-1066.49C759.26,-1066.49 763.18,-1066.49 767.04,-1066.49"/>
<polygon fill="#000000" fill-opacity="0.200000" stroke="#000000" stroke-width="2" stroke-opacity="0.200000" points="766.87,-1068.59 772.87,-1066.49 766.87,-1064.39 766.87,-1068.59"/>
</g>
<!-- src/pages/MainPage/ui/MainPage/MainPage.test.tsx -->
<g id="node34" class="node">
<title>src/pages/MainPage/ui/MainPage/MainPage.test.tsx</title>
<g id="a_node34"><a xlink:href="src/pages/MainPage/ui/MainPage/MainPage.test.tsx" xlink:title="no&#45;orphans">
<path fill="#ccffcc" stroke="orange" d="M742.58,-1106.74C742.58,-1106.74 666.92,-1106.74 666.92,-1106.74 663.83,-1106.74 660.75,-1103.66 660.75,-1100.57 660.75,-1100.57 660.75,-1094.41 660.75,-1094.41 660.75,-1091.32 663.83,-1088.24 666.92,-1088.24 666.92,-1088.24 742.58,-1088.24 742.58,-1088.24 745.67,-1088.24 748.75,-1091.32 748.75,-1094.41 748.75,-1094.41 748.75,-1100.57 748.75,-1100.57 748.75,-1103.66 745.67,-1106.74 742.58,-1106.74"/>
<text text-anchor="start" x="668.75" y="-1094.19" font-family="Helvetica,sans-Serif" font-size="9.00" fill="orange">MainPage.test.tsx</text>
</a>
</g>
</g>
<!-- src/pages/MangaPage/ui/MangaPage/MangaPage.tsx&#45;&gt;../../packages/model/src/lib/classNames/classNames.ts -->
<g id="edge48" class="edge">
<title>src/pages/MangaPage/ui/MangaPage/MangaPage.tsx&#45;&gt;../../packages/model/src/lib/classNames/classNames.ts</title>
<path fill="none" stroke="#000000" stroke-width="2" stroke-opacity="0.200000" d="M833.39,-1264.12C879.81,-1284.62 994.82,-1326.21 1059.75,-1269.49 1106.96,-1228.25 1137.55,-761.3 1143.54,-661.99"/>
<polygon fill="#000000" fill-opacity="0.200000" stroke="#000000" stroke-width="2" stroke-opacity="0.200000" points="1145.63,-662.23 1143.89,-656.11 1141.44,-661.98 1145.63,-662.23"/>
</g>
<!-- src/pages/MangaPage/ui/MangaPage/MangaPage.tsx&#45;&gt;../../packages/ui/src/shared/Page/Page.tsx -->
<g id="edge49" class="edge">
<title>src/pages/MangaPage/ui/MangaPage/MangaPage.tsx&#45;&gt;../../packages/ui/src/shared/Page/Page.tsx</title>
<path fill="none" stroke="#000000" stroke-width="2" stroke-opacity="0.200000" d="M817.12,-1244.91C825.21,-1225.07 843.46,-1177.89 852,-1136.49 860.11,-1097.16 855.39,-1086.38 860,-1046.49 891.19,-776.93 943.15,-450.48 956.04,-370.71"/>
<polygon fill="#000000" fill-opacity="0.200000" stroke="#000000" stroke-width="2" stroke-opacity="0.200000" points="958.1,-371.1 956.99,-364.84 953.96,-370.43 958.1,-371.1"/>
</g>
<!-- src/pages/MangaPage/ui/MangaPage/MangaPage.module.scss -->
<g id="node36" class="node">
<title>src/pages/MangaPage/ui/MangaPage/MangaPage.module.scss</title>
<g id="a_node36"><a xlink:href="src/pages/MangaPage/ui/MangaPage/MangaPage.module.scss" xlink:title="MangaPage.module.scss">
<path fill="#ffffcc" stroke="black" d="M1013.58,-1263.74C1013.58,-1263.74 906.42,-1263.74 906.42,-1263.74 903.33,-1263.74 900.25,-1260.66 900.25,-1257.57 900.25,-1257.57 900.25,-1251.41 900.25,-1251.41 900.25,-1248.32 903.33,-1245.24 906.42,-1245.24 906.42,-1245.24 1013.58,-1245.24 1013.58,-1245.24 1016.67,-1245.24 1019.75,-1248.32 1019.75,-1251.41 1019.75,-1251.41 1019.75,-1257.57 1019.75,-1257.57 1019.75,-1260.66 1016.67,-1263.74 1013.58,-1263.74"/>
<text text-anchor="start" x="908.25" y="-1251.19" font-family="Helvetica,sans-Serif" font-size="9.00">MangaPage.module.scss</text>
</a>
</g>
</g>
<!-- src/pages/MangaPage/ui/MangaPage/MangaPage.tsx&#45;&gt;src/pages/MangaPage/ui/MangaPage/MangaPage.module.scss -->
<g id="edge47" class="edge">
<title>src/pages/MangaPage/ui/MangaPage/MangaPage.tsx&#45;&gt;src/pages/MangaPage/ui/MangaPage/MangaPage.module.scss</title>
<path fill="none" stroke="#000000" stroke-width="2" stroke-opacity="0.200000" d="M852.22,-1254.49C864.19,-1254.49 877.73,-1254.49 891.05,-1254.49"/>
<polygon fill="#000000" fill-opacity="0.200000" stroke="#000000" stroke-width="2" stroke-opacity="0.200000" points="890.73,-1256.59 896.73,-1254.49 890.73,-1252.39 890.73,-1256.59"/>
</g>
<!-- src/pages/MangaPage/ui/MangaPage/MangaPage.stories.tsx -->
<g id="node37" class="node">
<title>src/pages/MangaPage/ui/MangaPage/MangaPage.stories.tsx</title>
<g id="a_node37"><a xlink:href="src/pages/MangaPage/ui/MangaPage/MangaPage.stories.tsx" xlink:title="MangaPage.stories.tsx">
<path fill="#bbfeff" stroke="black" d="M753.08,-1263.74C753.08,-1263.74 656.42,-1263.74 656.42,-1263.74 653.33,-1263.74 650.25,-1260.66 650.25,-1257.57 650.25,-1257.57 650.25,-1251.41 650.25,-1251.41 650.25,-1248.32 653.33,-1245.24 656.42,-1245.24 656.42,-1245.24 753.08,-1245.24 753.08,-1245.24 756.17,-1245.24 759.25,-1248.32 759.25,-1251.41 759.25,-1251.41 759.25,-1257.57 759.25,-1257.57 759.25,-1260.66 756.17,-1263.74 753.08,-1263.74"/>
<text text-anchor="start" x="658.25" y="-1251.19" font-family="Helvetica,sans-Serif" font-size="9.00">MangaPage.stories.tsx</text>
</a>
</g>
</g>
<!-- src/pages/MangaPage/ui/MangaPage/MangaPage.stories.tsx&#45;&gt;src/pages/MangaPage/ui/MangaPage/MangaPage.tsx -->
<g id="edge46" class="edge">
<title>src/pages/MangaPage/ui/MangaPage/MangaPage.stories.tsx&#45;&gt;src/pages/MangaPage/ui/MangaPage/MangaPage.tsx</title>
<path fill="none" stroke="#000000" stroke-width="2" stroke-opacity="0.200000" d="M759.67,-1254.49C760.84,-1254.49 762.01,-1254.49 763.17,-1254.49"/>
<polygon fill="#000000" fill-opacity="0.200000" stroke="#000000" stroke-width="2" stroke-opacity="0.200000" points="762.97,-1256.59 768.97,-1254.49 762.97,-1252.39 762.97,-1256.59"/>
</g>
<!-- src/widgets/Header/ui/Header/Header.tsx&#45;&gt;../../packages/model/src/lib/classNames/classNames.ts -->
<g id="edge53" class="edge">
<title>src/widgets/Header/ui/Header/Header.tsx&#45;&gt;../../packages/model/src/lib/classNames/classNames.ts</title>
<path fill="none" stroke="#000000" stroke-width="2" stroke-opacity="0.200000" d="M433.71,-1264.15C455,-1296.36 528.62,-1400.75 618.25,-1448.49 652.37,-1466.66 665.09,-1464.49 703.75,-1464.49 703.75,-1464.49 703.75,-1464.49 813.12,-1464.49 946.51,-1464.49 990.35,-1407.4 1059.75,-1293.49 1127.02,-1183.07 1141.74,-756.59 1144.2,-662.1"/>
<polygon fill="#000000" fill-opacity="0.200000" stroke="#000000" stroke-width="2" stroke-opacity="0.200000" points="1146.3,-662.2 1144.35,-656.15 1142.1,-662.1 1146.3,-662.2"/>
</g>
<!-- src/widgets/Header/ui/Header/Header.tsx&#45;&gt;../../packages/model/src/lib/theme/useTheme.ts -->
<g id="edge54" class="edge">
<title>src/widgets/Header/ui/Header/Header.tsx&#45;&gt;../../packages/model/src/lib/theme/useTheme.ts</title>
<path fill="none" stroke="#000000" stroke-width="2" stroke-opacity="0.200000" d="M431.55,-1244.8C440.16,-1223.81 460.37,-1172.4 471,-1127.49 477.09,-1101.74 468.45,-1092.76 479,-1068.49 541.92,-923.72 545.9,-793.49 703.75,-793.49 703.75,-793.49 703.75,-793.49 813.12,-793.49 951.2,-793.49 951.13,-689.42 1067.75,-615.49 1084.41,-604.93 1103.67,-593.91 1118.74,-585.54"/>
<polygon fill="#000000" fill-opacity="0.200000" stroke="#000000" stroke-width="2" stroke-opacity="0.200000" points="1119.76,-587.38 1124,-582.64 1117.73,-583.7 1119.76,-587.38"/>
</g>
<!-- src/widgets/Header/ui/Header/Header.tsx&#45;&gt;../../packages/ui/src/layout/HeaderLayout/HeaderLayout.tsx -->
<g id="edge55" class="edge">
<title>src/widgets/Header/ui/Header/Header.tsx&#45;&gt;../../packages/ui/src/layout/HeaderLayout/HeaderLayout.tsx</title>
<path fill="none" stroke="#000000" stroke-width="2" stroke-opacity="0.200000" d="M431.94,-1244.88C441.3,-1224.05 462.89,-1172.92 471,-1127.49 477.72,-1089.85 465.75,-819.35 479,-783.49 579.88,-510.47 864,-270.85 940.07,-210.24"/>
<polygon fill="#000000" fill-opacity="0.200000" stroke="#000000" stroke-width="2" stroke-opacity="0.200000" points="940.99,-212.19 944.39,-206.82 938.39,-208.9 940.99,-212.19"/>
</g>
<!-- src/widgets/Header/ui/Header/Header.module.scss -->
<g id="node39" class="node">
<title>src/widgets/Header/ui/Header/Header.module.scss</title>
<g id="a_node39"><a xlink:href="src/widgets/Header/ui/Header/Header.module.scss" xlink:title="Header.module.scss">
<path fill="#ffffcc" stroke="black" d="M572.08,-1263.74C572.08,-1263.74 485.17,-1263.74 485.17,-1263.74 482.08,-1263.74 479,-1260.66 479,-1257.57 479,-1257.57 479,-1251.41 479,-1251.41 479,-1248.32 482.08,-1245.24 485.17,-1245.24 485.17,-1245.24 572.08,-1245.24 572.08,-1245.24 575.17,-1245.24 578.25,-1248.32 578.25,-1251.41 578.25,-1251.41 578.25,-1257.57 578.25,-1257.57 578.25,-1260.66 575.17,-1263.74 572.08,-1263.74"/>
<text text-anchor="start" x="487" y="-1251.19" font-family="Helvetica,sans-Serif" font-size="9.00">Header.module.scss</text>
</a>
</g>
</g>
<!-- src/widgets/Header/ui/Header/Header.tsx&#45;&gt;src/widgets/Header/ui/Header/Header.module.scss -->
<g id="edge52" class="edge">
<title>src/widgets/Header/ui/Header/Header.tsx&#45;&gt;src/widgets/Header/ui/Header/Header.module.scss</title>
<path fill="none" stroke="#000000" stroke-width="2" stroke-opacity="0.200000" d="M456.73,-1254.49C460.95,-1254.49 465.41,-1254.49 469.96,-1254.49"/>
<polygon fill="#000000" fill-opacity="0.200000" stroke="#000000" stroke-width="2" stroke-opacity="0.200000" points="469.74,-1256.59 475.74,-1254.49 469.74,-1252.39 469.74,-1256.59"/>
</g>
<!-- src/widgets/Header/ui/Header/Header.stories.tsx -->
<g id="node40" class="node">
<title>src/widgets/Header/ui/Header/Header.stories.tsx</title>
<g id="a_node40"><a xlink:href="src/widgets/Header/ui/Header/Header.stories.tsx" xlink:title="Header.stories.tsx">
<path fill="#bbfeff" stroke="black" d="M367.83,-1263.74C367.83,-1263.74 291.42,-1263.74 291.42,-1263.74 288.33,-1263.74 285.25,-1260.66 285.25,-1257.57 285.25,-1257.57 285.25,-1251.41 285.25,-1251.41 285.25,-1248.32 288.33,-1245.24 291.42,-1245.24 291.42,-1245.24 367.83,-1245.24 367.83,-1245.24 370.92,-1245.24 374,-1248.32 374,-1251.41 374,-1251.41 374,-1257.57 374,-1257.57 374,-1260.66 370.92,-1263.74 367.83,-1263.74"/>
<text text-anchor="start" x="293.25" y="-1251.19" font-family="Helvetica,sans-Serif" font-size="9.00">Header.stories.tsx</text>
</a>
</g>
</g>
<!-- src/widgets/Header/ui/Header/Header.stories.tsx&#45;&gt;src/widgets/Header/ui/Header/Header.tsx -->
<g id="edge51" class="edge">
<title>src/widgets/Header/ui/Header/Header.stories.tsx&#45;&gt;src/widgets/Header/ui/Header/Header.tsx</title>
<path fill="none" stroke="#000000" stroke-width="2" stroke-opacity="0.200000" d="M374.45,-1254.49C378.89,-1254.49 383.37,-1254.49 387.74,-1254.49"/>
<polygon fill="#000000" fill-opacity="0.200000" stroke="#000000" stroke-width="2" stroke-opacity="0.200000" points="387.47,-1256.59 393.47,-1254.49 387.47,-1252.39 387.47,-1256.59"/>
</g>
</g>
</svg>
