<svg width="20" height="20" viewBox="0 0 20 20" fill="none" xmlns="http://www.w3.org/2000/svg">
<path d="M11.739 16.2129C11.739 16.7433 11.5283 17.252 11.1532 17.6271C10.7782 18.0022 10.2694 18.2129 9.73901 18.2129C9.20858 18.2129 8.69987 18.0022 8.3248 17.6271C7.94973 17.252 7.73901 16.7433 7.73901 16.2129C7.73901 15.6825 7.94973 15.1737 8.3248 14.7987C8.69987 14.4236 9.20858 14.2129 9.73901 14.2129C10.2694 14.2129 10.7782 14.4236 11.1532 14.7987C11.5283 15.1737 11.739 15.6825 11.739 16.2129Z"/>
<path fill-rule="evenodd" clip-rule="evenodd" d="M9.71001 4.76499C9.04001 4.76499 8.46501 4.96499 8.06001 5.25099C7.67001 5.52699 7.47701 5.84799 7.42101 6.12499C7.33826 6.49525 7.11369 6.81834 6.79547 7.02493C6.47725 7.23152 6.09074 7.30516 5.71885 7.23005C5.34697 7.15494 5.01933 6.93706 4.80623 6.62316C4.59314 6.30926 4.51156 5.92435 4.57901 5.55099C4.80601 4.42499 5.50401 3.50599 6.38801 2.88099C7.30801 2.23099 8.47401 1.86499 9.71001 1.86499C12.267 1.86499 14.918 3.57499 14.918 6.32099C14.918 7.91099 13.973 9.19699 12.749 9.94699C12.4209 10.1478 12.0265 10.21 11.6526 10.12C11.2786 10.0299 10.9558 9.79506 10.755 9.46699C10.5542 9.13892 10.492 8.74453 10.582 8.37058C10.6721 7.99663 10.9069 7.67376 11.235 7.47299C11.805 7.12399 12.018 6.67899 12.018 6.32099C12.018 5.74699 11.303 4.76499 9.71001 4.76499Z" />
<path fill-rule="evenodd" clip-rule="evenodd" d="M9.71001 8.62988C10.51 8.62988 11.16 9.27788 11.16 10.0799V11.5819C11.16 11.9664 11.0072 12.3353 10.7353 12.6072C10.4634 12.8791 10.0946 13.0319 9.71001 13.0319C9.32545 13.0319 8.95663 12.8791 8.6847 12.6072C8.41278 12.3353 8.26001 11.9664 8.26001 11.5819V10.0799C8.26001 9.27988 8.90901 8.62988 9.71001 8.62988Z" />
<path fill-rule="evenodd" clip-rule="evenodd" d="M13.239 7.966C13.337 8.12946 13.4018 8.31063 13.4296 8.49914C13.4575 8.68766 13.448 8.87982 13.4015 9.06464C13.3551 9.24946 13.2727 9.42331 13.159 9.57626C13.0453 9.7292 12.9026 9.85824 12.739 9.956L10.455 11.323C10.1251 11.5206 9.7302 11.579 9.35719 11.4854C8.98418 11.3919 8.66362 11.1539 8.46603 10.824C8.26845 10.4941 8.21002 10.0992 8.3036 9.72615C8.39718 9.35314 8.63511 9.03258 8.96504 8.835L11.25 7.467C11.4135 7.3692 11.5945 7.30456 11.783 7.27676C11.9714 7.24896 12.1634 7.25855 12.3481 7.30498C12.5328 7.35141 12.7066 7.43378 12.8594 7.54737C13.0123 7.66096 13.1413 7.80255 13.239 7.966Z" />
</svg>
