<svg width="16" height="16" viewBox="0 0 16 16" fill="none" xmlns="http://www.w3.org/2000/svg">
<path d="M13 14.2501C13 14.449 12.921 14.6397 12.7803 14.7804C12.6397 14.9211 12.4489 15.0001 12.25 15.0001C12.0511 15.0001 11.8603 14.9211 11.7197 14.7804C11.579 14.6397 11.5 14.449 11.5 14.2501V3.56007L10.78 4.28007C10.7113 4.35376 10.6285 4.41286 10.5365 4.45385C10.4445 4.49485 10.3452 4.51689 10.2445 4.51866C10.1438 4.52044 10.0438 4.50192 9.9504 4.4642C9.85701 4.42647 9.77218 4.37033 9.70096 4.29911C9.62974 4.22789 9.5736 4.14306 9.53588 4.04967C9.49816 3.95628 9.47963 3.85625 9.48141 3.75555C9.48318 3.65485 9.50523 3.55553 9.54622 3.46353C9.58721 3.37153 9.64631 3.28873 9.72 3.22007L11.72 1.22007C11.8606 1.07962 12.0512 1.00073 12.25 1.00073C12.4488 1.00073 12.6394 1.07962 12.78 1.22007L14.78 3.22007C14.9125 3.36225 14.9846 3.55029 14.9812 3.7446C14.9777 3.9389 14.899 4.12428 14.7616 4.26169C14.6242 4.39911 14.4388 4.47782 14.2445 4.48125C14.0502 4.48468 13.8622 4.41255 13.72 4.28007L13 3.56007V14.2501ZM2.75 13.5001C2.55109 13.5001 2.36032 13.4211 2.21967 13.2804C2.07902 13.1397 2 12.949 2 12.7501C2 12.5512 2.07902 12.3604 2.21967 12.2197C2.36032 12.0791 2.55109 12.0001 2.75 12.0001H9.25C9.44891 12.0001 9.63968 12.0791 9.78033 12.2197C9.92098 12.3604 10 12.5512 10 12.7501C10 12.949 9.92098 13.1397 9.78033 13.2804C9.63968 13.4211 9.44891 13.5001 9.25 13.5001H2.75ZM4.75 10.5001C4.55109 10.5001 4.36032 10.4211 4.21967 10.2804C4.07902 10.1397 4 9.94898 4 9.75007C4 9.55116 4.07902 9.3604 4.21967 9.21974C4.36032 9.07909 4.55109 9.00007 4.75 9.00007H9.25C9.44891 9.00007 9.63968 9.07909 9.78033 9.21974C9.92098 9.3604 10 9.55116 10 9.75007C10 9.94898 9.92098 10.1397 9.78033 10.2804C9.63968 10.4211 9.44891 10.5001 9.25 10.5001H4.75ZM6 6.75007C6 7.16407 6.336 7.50007 6.75 7.50007H9.25C9.44891 7.50007 9.63968 7.42105 9.78033 7.2804C9.92098 7.13975 10 6.94898 10 6.75007C10 6.55116 9.92098 6.36039 9.78033 6.21974C9.63968 6.07909 9.44891 6.00007 9.25 6.00007H6.75C6.55109 6.00007 6.36032 6.07909 6.21967 6.21974C6.07902 6.36039 6 6.55116 6 6.75007Z" fill="black"/>
</svg>
