<svg width="18" height="22" viewBox="0 0 18 22" fill="none" xmlns="http://www.w3.org/2000/svg">
<path d="M10.872 21.32C7.416 21.32 4.77067 20.392 2.936 18.536C1.10133 16.6587 0.184 14.1093 0.184 10.888C0.184 7.47467 1.06933 4.81867 2.84 2.92C4.632 1.02133 7.29867 0.0719986 10.84 0.0719986C12.0773 0.0719986 13.1867 0.167999 14.168 0.359999C15.1707 0.530666 16.1093 0.775999 16.984 1.096V4.872C15.1707 4.12533 13.2293 3.752 11.16 3.752C8.81333 3.752 7.128 4.33867 6.104 5.512C5.08 6.68533 4.568 8.47733 4.568 10.888C4.568 15.4107 6.78667 17.672 11.224 17.672C12.2267 17.672 13.2187 17.5867 14.2 17.416C15.1813 17.224 16.12 16.9467 17.016 16.584V20.392C16.1413 20.6693 15.2027 20.8933 14.2 21.064C13.2187 21.2347 12.1093 21.32 10.872 21.32Z" />
</svg>
